<svg width="32" height="32" viewBox="0 0 32 32" fill="none" xmlns="http://www.w3.org/2000/svg">
<path d="M27.5305 3.56543L17.5367 10.9879L19.3848 6.60874L27.5305 3.56543Z" fill="#E2761B" stroke="#E2761B" stroke-linecap="round" stroke-linejoin="round"/>
<path d="M4.45953 3.56543L14.3729 11.0582L12.6152 6.60874L4.45953 3.56543Z" fill="#E4761B" stroke="#E4761B" stroke-linecap="round" stroke-linejoin="round"/>
<path d="M23.9347 20.7705L21.2731 24.8483L26.968 26.4152L28.6051 20.8609L23.9347 20.7705Z" fill="#E4761B" stroke="#E4761B" stroke-linecap="round" stroke-linejoin="round"/>
<path d="M3.40491 20.8609L5.03203 26.4152L10.7269 24.8483L8.0653 20.7705L3.40491 20.8609Z" fill="#E4761B" stroke="#E4761B" stroke-linecap="round" stroke-linejoin="round"/>
<path d="M10.4055 13.8806L8.8186 16.2811L14.4733 16.5322L14.2725 10.4556L10.4055 13.8806Z" fill="#E4761B" stroke="#E4761B" stroke-linecap="round" stroke-linejoin="round"/>
<path d="M21.5844 13.8805L17.6673 10.3853L17.5367 16.5321L23.1814 16.281L21.5844 13.8805Z" fill="#E4761B" stroke="#E4761B" stroke-linecap="round" stroke-linejoin="round"/>
<path d="M10.7269 24.8486L14.1218 23.1914L11.1889 20.9014L10.7269 24.8486Z" fill="#E4761B" stroke="#E4761B" stroke-linecap="round" stroke-linejoin="round"/>
<path d="M17.8682 23.1914L21.2731 24.8486L20.801 20.9014L17.8682 23.1914Z" fill="#E4761B" stroke="#E4761B" stroke-linecap="round" stroke-linejoin="round"/>
<path d="M21.2731 24.8487L17.8682 23.1914L18.1394 25.4111L18.1092 26.3452L21.2731 24.8487Z" fill="#D7C1B3" stroke="#D7C1B3" stroke-linecap="round" stroke-linejoin="round"/>
<path d="M10.7269 24.8487L13.8908 26.3452L13.8707 25.4111L14.1218 23.1914L10.7269 24.8487Z" fill="#D7C1B3" stroke="#D7C1B3" stroke-linecap="round" stroke-linejoin="round"/>
<path d="M13.941 19.4351L11.1086 18.6015L13.1073 17.6875L13.941 19.4351Z" fill="#233447" stroke="#233447" stroke-linecap="round" stroke-linejoin="round"/>
<path d="M18.049 19.4351L18.8826 17.6875L20.8914 18.6015L18.049 19.4351Z" fill="#233447" stroke="#233447" stroke-linecap="round" stroke-linejoin="round"/>
<path d="M10.727 24.8488L11.2091 20.771L8.06531 20.8614L10.727 24.8488Z" fill="#CD6116" stroke="#CD6116" stroke-linecap="round" stroke-linejoin="round"/>
<path d="M20.791 20.771L21.2731 24.8488L23.9347 20.8614L20.791 20.771Z" fill="#CD6116" stroke="#CD6116" stroke-linecap="round" stroke-linejoin="round"/>
<path d="M23.1814 16.2812L17.5367 16.5323L18.059 19.435L18.8927 17.6874L20.9015 18.6014L23.1814 16.2812Z" fill="#CD6116" stroke="#CD6116" stroke-linecap="round" stroke-linejoin="round"/>
<path d="M11.1086 18.6014L13.1174 17.6874L13.941 19.435L14.4733 16.5323L8.8186 16.2812L11.1086 18.6014Z" fill="#CD6116" stroke="#CD6116" stroke-linecap="round" stroke-linejoin="round"/>
<path d="M8.8186 16.2812L11.189 20.9015L11.1086 18.6014L8.8186 16.2812Z" fill="#E4751F" stroke="#E4751F" stroke-linecap="round" stroke-linejoin="round"/>
<path d="M20.9015 18.6014L20.801 20.9015L23.1814 16.2812L20.9015 18.6014Z" fill="#E4751F" stroke="#E4751F" stroke-linecap="round" stroke-linejoin="round"/>
<path d="M14.4734 16.5322L13.941 19.4349L14.6039 22.8599L14.7546 18.3502L14.4734 16.5322Z" fill="#E4751F" stroke="#E4751F" stroke-linecap="round" stroke-linejoin="round"/>
<path d="M17.5368 16.5322L17.2656 18.3401L17.3861 22.8599L18.059 19.4349L17.5368 16.5322Z" fill="#E4751F" stroke="#E4751F" stroke-linecap="round" stroke-linejoin="round"/>
<path d="M18.059 19.4352L17.386 22.8602L17.8682 23.1917L20.801 20.9016L20.9014 18.6016L18.059 19.4352Z" fill="#F6851B" stroke="#F6851B" stroke-linecap="round" stroke-linejoin="round"/>
<path d="M11.1086 18.6016L11.1889 20.9016L14.1218 23.1917L14.6039 22.8602L13.941 19.4352L11.1086 18.6016Z" fill="#F6851B" stroke="#F6851B" stroke-linecap="round" stroke-linejoin="round"/>
<path d="M18.1092 26.3452L18.1394 25.4111L17.8883 25.1901H14.1017L13.8707 25.4111L13.8908 26.3452L10.7269 24.8486L11.8318 25.7526L14.0716 27.3094H17.9184L20.1682 25.7526L21.2731 24.8486L18.1092 26.3452Z" fill="#C0AD9E" stroke="#C0AD9E" stroke-linecap="round" stroke-linejoin="round"/>
<path d="M17.8682 23.1913L17.386 22.8599H14.6039L14.1218 23.1913L13.8707 25.411L14.1017 25.1901H17.8882L18.1393 25.411L17.8682 23.1913Z" fill="#161616" stroke="#161616" stroke-linecap="round" stroke-linejoin="round"/>
<path d="M27.9523 11.47L28.806 7.37208L27.5304 3.56543L17.8682 10.7368L21.5844 13.8806L26.8374 15.4173L28.0025 14.0613L27.5003 13.6998L28.3038 12.9666L27.6811 12.4845L28.4846 11.8718L27.9523 11.47Z" fill="#763D16" stroke="#763D16" stroke-linecap="round" stroke-linejoin="round"/>
<path d="M3.19397 7.37208L4.04771 11.47L3.50533 11.8718L4.30885 12.4845L3.69617 12.9666L4.49968 13.6998L3.99749 14.0613L5.15254 15.4173L10.4055 13.8806L14.1218 10.7368L4.45951 3.56543L3.19397 7.37208Z" fill="#763D16" stroke="#763D16" stroke-linecap="round" stroke-linejoin="round"/>
<path d="M26.8374 15.4176L21.5845 13.8809L23.1814 16.2814L20.801 20.9016L23.9347 20.8614H28.6052L26.8374 15.4176Z" fill="#F6851B" stroke="#F6851B" stroke-linecap="round" stroke-linejoin="round"/>
<path d="M10.4055 13.8809L5.15255 15.4176L3.40491 20.8614H8.0653L11.189 20.9016L8.81859 16.2814L10.4055 13.8809Z" fill="#F6851B" stroke="#F6851B" stroke-linecap="round" stroke-linejoin="round"/>
<path d="M17.5367 16.5323L17.8682 10.7369L19.3948 6.60889H12.6152L14.1218 10.7369L14.4733 16.5323L14.5938 18.3603L14.6039 22.86H17.386L17.4061 18.3603L17.5367 16.5323Z" fill="#F6851B" stroke="#F6851B" stroke-linecap="round" stroke-linejoin="round"/>
</svg>
