<svg width="32" height="32" viewBox="0 0 32 32" fill="none" xmlns="http://www.w3.org/2000/svg">
<path d="M6.55344 9.86719C11.7706 4.75911 20.2294 4.75911 25.4466 9.86719L26.0745 10.482C26.3353 10.7374 26.3353 11.1514 26.0745 11.4068L23.9266 13.5098C23.7961 13.6375 23.5847 13.6375 23.4542 13.5098L22.5902 12.6638C18.9505 9.10033 13.0495 9.10033 9.40985 12.6638L8.48451 13.5698C8.35408 13.6975 8.14261 13.6975 8.01218 13.5698L5.86427 11.4668C5.60341 11.2114 5.60341 10.7973 5.86427 10.5419L6.55344 9.86719ZM29.8887 14.2164L31.8003 16.0881C32.0612 16.3435 32.0612 16.7575 31.8003 17.013L23.1806 25.4525C22.9197 25.7079 22.4968 25.7079 22.2359 25.4525C22.2359 25.4525 22.2359 25.4525 22.2359 25.4525L16.1181 19.4627C16.0529 19.3989 15.9472 19.3989 15.882 19.4627C15.882 19.4627 15.882 19.4627 15.882 19.4627L9.76433 25.4525C9.50347 25.7079 9.08053 25.708 8.81967 25.4526C8.81967 25.4525 8.81967 25.4525 8.81966 25.4525L0.199673 17.0128C-0.0611866 16.7574 -0.0611866 16.3433 0.199673 16.0879L2.11132 14.2163C2.37218 13.9609 2.79512 13.9609 3.05598 14.2163L9.17385 20.2062C9.23906 20.27 9.3448 20.27 9.41001 20.2062C9.41001 20.2062 9.41001 20.2062 9.41001 20.2062L15.5276 14.2163C15.7884 13.9609 16.2114 13.9609 16.4722 14.2163C16.4722 14.2163 16.4722 14.2163 16.4722 14.2163L22.5901 20.2062C22.6553 20.27 22.761 20.27 22.8263 20.2062L28.944 14.2164C29.2049 13.961 29.6278 13.961 29.8887 14.2164Z" fill="#3B99FC"/>
</svg>
