<svg width="11" height="12" viewBox="0 0 11 12" fill="none" xmlns="http://www.w3.org/2000/svg">
    <path
        d="M2.68555 11.2256C3.93652 11.2256 4.94141 10.2139 4.94141 8.97656V7.94434H6.45215V8.97656C6.45215 10.2139 7.46387 11.2256 8.70117 11.2256C9.93848 11.2256 10.9502 10.2139 10.9502 8.97656C10.9502 7.73242 9.93848 6.7207 8.70117 6.7207H7.68945V5.20312H8.70117C9.93848 5.2168 10.9502 4.19824 10.9502 2.96094C10.9502 1.72363 9.93848 0.711914 8.70117 0.711914C7.46387 0.711914 6.45215 1.72363 6.45215 2.96094V3.97949H4.94141V2.96094C4.94141 1.72363 3.93652 0.711914 2.68555 0.711914C1.45508 0.711914 0.443359 1.72363 0.443359 2.96094C0.443359 4.19824 1.45508 5.2168 2.68555 5.20312H3.71777V6.7207H2.68555C1.45508 6.7207 0.443359 7.73242 0.443359 8.97656C0.443359 10.2139 1.45508 11.2256 2.68555 11.2256ZM2.68555 9.98828C2.125 9.98828 1.67383 9.53711 1.67383 8.97656C1.67383 8.40918 2.125 7.95801 2.68555 7.94434H3.71777V8.97656C3.71094 9.53711 3.25293 9.98828 2.68555 9.98828ZM2.68555 3.97949C2.125 3.97949 1.67383 3.52832 1.67383 2.96094C1.67383 2.40039 2.125 1.94922 2.68555 1.94922C3.25293 1.94922 3.71094 2.40039 3.71777 2.96094V3.97949H2.68555ZM8.70117 9.98828C8.14062 9.98828 7.68262 9.53711 7.68945 8.97656V7.94434H8.70117C9.26855 7.95801 9.71973 8.40918 9.71973 8.97656C9.71973 9.53711 9.26855 9.98828 8.70117 9.98828ZM7.68945 3.97949V2.96094C7.68262 2.40039 8.14062 1.94922 8.70117 1.94922C9.26855 1.94922 9.71973 2.40039 9.71973 2.96094C9.71973 3.52832 9.26855 3.97949 8.70117 3.97949H7.68945ZM4.94141 6.7207V5.20312H6.45215V6.7207H4.94141Z"
        fill="#8E93AF"
    />
</svg>