<svg width="96" height="96" viewBox="0 0 96 96" fill="none" xmlns="http://www.w3.org/2000/svg">
<circle cx="48" cy="40" r="30" fill="#FFF5FA"/>
<circle cx="48" cy="40" r="34" stroke="url(#paint0_linear_682_11169)" stroke-opacity="0.1" stroke-width="8"/>
<g filter="url(#filter0_d_682_11169)">
<circle cx="48" cy="40" r="30" fill="white"/>
</g>
<path fill-rule="evenodd" clip-rule="evenodd" d="M35.8492 33.7746L42.7583 23L32.4585 33.2996C31.6014 34.1567 32.0048 35.621 33.1797 35.9183L38.6389 37.3004C38.1514 38.0665 37.5994 39.0327 37.1705 40.0569C36.7773 40.995 36.4497 42.0692 36.4173 43.133C36.3841 44.2224 36.6633 45.3897 37.5846 46.3108C38.9688 47.6951 39.9739 48.1781 40.7767 48.5637C40.8364 48.5924 40.895 48.6205 40.9524 48.6484C41.3259 48.8298 41.6019 48.9785 41.8946 49.2126C42.1902 49.4488 42.549 49.8098 43.0098 50.4436C43.0918 50.5564 43.1789 50.6769 43.2704 50.8042C44.2755 52.1987 45.8528 54.3875 47.8881 55.8404C49.024 56.6511 50.3719 57.2879 51.9133 57.4127C53.4746 57.539 55.105 57.1288 56.7645 56.0601C58.3539 55.0363 59.4013 53.8959 59.8941 52.5677C60.3904 51.2302 60.2434 49.9192 59.8824 48.7302C59.5518 47.6412 59.0001 46.5307 58.4853 45.4942L58.4843 45.4922L58.4741 45.4719L58.3882 45.2987C57.825 44.1633 57.2938 43.0656 56.9402 41.9165C56.25 39.6732 56.7182 38.7014 57.0124 38.3164C57.1538 38.1313 57.3333 37.9789 57.5388 37.8693C57.6153 37.8285 57.6766 37.8043 57.7104 37.7922L57.7285 37.7859L57.761 37.7783L57.8166 37.7601H57.8168L58.061 37.6801L58.7049 37.4681C59.2381 37.2924 59.9505 37.0569 60.6664 36.8183C61.3812 36.5801 62.1034 36.3373 62.6547 36.1473C62.929 36.0528 63.168 35.9691 63.3447 35.9044C63.4312 35.8728 63.5139 35.8416 63.5823 35.814C63.6147 35.801 63.6596 35.7822 63.706 35.7604C63.7425 35.7433 63.7784 35.7249 63.8134 35.7051L63.8156 35.7039C63.9258 35.6417 64.0272 35.5649 64.1168 35.4755C64.6719 34.9205 64.4942 34.2403 64.4761 34.1704L64.4751 34.167C64.4462 34.0541 64.4033 33.9452 64.3474 33.843C64.3109 33.7766 64.2698 33.7129 64.2244 33.6524C64.1762 33.588 64.1227 33.5249 64.0821 33.4781C63.9674 33.348 63.8505 33.2199 63.7314 33.0938C63.5627 32.9138 60.2879 29.5962 57.5366 26.8092C55.6313 24.8793 53.9773 23.2036 53.7793 23C53.8028 23.024 55.5648 25.7963 57.3088 28.5404C59.0179 31.2293 60.7098 33.8912 60.7318 33.914C60.4322 34.015 60.1172 34.1202 59.8021 34.2252C58.9381 34.5131 58.0735 34.799 57.2082 35.0831L57.0019 35.1508L56.9851 35.1555L56.9726 35.159C56.9244 35.1731 56.8637 35.1922 56.7926 35.2176C56.651 35.268 56.4652 35.3445 56.2551 35.4562C55.7032 35.7501 55.221 36.1594 54.8412 36.6563C53.8666 37.9308 53.4562 39.8874 54.3277 42.7203C54.7551 44.1092 55.3832 45.3911 55.9394 46.5131L55.9941 46.623C56.5478 47.739 57.0048 48.6603 57.267 49.5242C57.5284 50.3852 57.546 51.0388 57.3316 51.6169C57.1136 52.2046 56.5747 52.9311 55.2844 53.7622C54.0642 54.548 53.0236 54.7602 52.1335 54.6882C51.2237 54.6146 50.3403 54.2327 49.4762 53.6157C47.8284 52.4395 46.5062 50.6124 45.4643 49.1724C45.3811 49.0576 45.2999 48.9453 45.2202 48.836C44.6517 48.0541 44.1298 47.5 43.601 47.0773C43.0693 46.6525 42.577 46.3987 42.1463 46.1896C42.0842 46.1593 42.0225 46.1299 41.961 46.1004V46.1002C41.2536 45.7611 40.574 45.435 39.5172 44.3782C39.2738 44.1346 39.1318 43.7845 39.1492 43.2164C39.1674 42.6229 39.362 41.8993 39.6914 41.1129C40.3482 39.5456 41.3899 38.0737 41.8062 37.5177C42.4856 36.6098 42.002 35.3322 40.9358 35.0622L35.8492 33.7746V33.7746ZM47.3713 44.9489C47.3713 44.9489 45.2647 44.9489 43.8606 43.6568C42.4565 42.3646 43.8606 39.7804 43.8606 39.7804C43.8606 39.7804 44.2702 40.0387 45.8208 41.8478C47.3713 43.6568 47.3713 44.9489 47.3713 44.9489Z" fill="#2B2E3F"/>
<defs>
<filter id="filter0_d_682_11169" x="0" y="0" width="96" height="96" filterUnits="userSpaceOnUse" color-interpolation-filters="sRGB">
<feFlood flood-opacity="0" result="BackgroundImageFix"/>
<feColorMatrix in="SourceAlpha" type="matrix" values="0 0 0 0 0 0 0 0 0 0 0 0 0 0 0 0 0 0 127 0" result="hardAlpha"/>
<feMorphology radius="2" operator="erode" in="SourceAlpha" result="effect1_dropShadow_682_11169"/>
<feOffset dy="8"/>
<feGaussianBlur stdDeviation="10"/>
<feComposite in2="hardAlpha" operator="out"/>
<feColorMatrix type="matrix" values="0 0 0 0 0.1241 0 0 0 0 0.0784522 0 0 0 0 0.254022 0 0 0 0.3 0"/>
<feBlend mode="normal" in2="BackgroundImageFix" result="effect1_dropShadow_682_11169"/>
<feBlend mode="normal" in="SourceGraphic" in2="effect1_dropShadow_682_11169" result="shape"/>
</filter>
<linearGradient id="paint0_linear_682_11169" x1="48" y1="10" x2="48" y2="70" gradientUnits="userSpaceOnUse">
<stop stop-color="white"/>
<stop offset="1" stop-color="white" stop-opacity="0"/>
</linearGradient>
</defs>
</svg>
