<svg width="96" height="96" viewBox="0 0 96 96" fill="none" xmlns="http://www.w3.org/2000/svg">
<circle cx="48" cy="40" r="30" fill="#FFF5FA"/>
<circle cx="48" cy="40" r="34" stroke="url(#paint0_linear_682_11175)" stroke-opacity="0.1" stroke-width="8"/>
<g filter="url(#filter0_d_682_11175)">
<circle cx="48" cy="40" r="30" fill="white"/>
</g>
<path d="M48.1985 25.046V25.0613C48.2134 25.1379 48.2134 25.2298 48.2134 25.3218V36.3697C48.1985 36.431 48.1539 36.4463 48.1092 36.4769C47.7967 36.6302 47.499 36.7681 47.1864 36.906C46.7548 37.1052 46.3083 37.3197 45.8767 37.5189L44.3139 38.2544C43.8823 38.4536 43.4507 38.6528 43.034 38.852C42.5279 39.0972 42.007 39.327 41.501 39.5722C41.0693 39.7714 40.6377 39.9859 40.1912 40.1851C39.834 40.3537 39.4768 40.5069 39.1345 40.6755C39.1047 40.6908 39.075 40.7061 39.0452 40.7061C39.0303 40.7061 39.0303 40.7061 39.0154 40.6908L39.4173 40.0012C40.1912 38.6835 40.9503 37.381 41.7242 36.0632C42.5428 34.6535 43.3763 33.2438 44.1949 31.8341C44.9539 30.5316 45.7279 29.2292 46.4869 27.9267C47.0376 26.9767 47.6032 26.0266 48.1539 25.0766C48.1688 25.046 48.1836 25.0306 48.1836 25H48.1985C48.1836 25.0153 48.1985 25.0306 48.1985 25.046Z" fill="#2B2E3F"/>
<path d="M57.3363 40.6909L57.3512 40.7062L48.2872 46.2225C48.2574 46.2378 48.2276 46.2532 48.2128 46.2685C48.1681 46.2685 48.1681 46.2225 48.1681 46.2072V36.5997C48.1681 36.5537 48.1681 36.4924 48.183 36.4464C48.1979 36.3851 48.2425 36.4005 48.2872 36.4158C48.4807 36.5077 48.689 36.5997 48.8825 36.6916C49.463 36.9674 50.0434 37.2432 50.6239 37.5037C51.1299 37.7336 51.6211 37.9787 52.1271 38.2086C52.6331 38.4384 53.1392 38.6836 53.6452 38.9134C54.0768 39.1126 54.5234 39.3272 54.955 39.5264C55.3866 39.7256 55.8331 39.9401 56.2647 40.1393C56.607 40.2925 56.9494 40.4611 57.2917 40.6143C57.2917 40.6603 57.3066 40.6756 57.3363 40.6909Z" fill="#2B2E3F"/>
<path d="M48.1979 55.7841C48.1979 55.7994 48.183 55.8147 48.183 55.83H48.1681C48.1681 55.7994 48.1383 55.7841 48.1234 55.7534C47.2007 54.4203 46.2779 53.0719 45.3551 51.7388C44.4175 50.375 43.4649 48.996 42.5273 47.6322C41.6194 46.3144 40.6966 44.9813 39.7887 43.6636C39.5506 43.3111 39.3124 42.974 39.0743 42.6216C39.0594 42.5909 39.0445 42.5756 39.0148 42.5297C39.0594 42.5297 39.0892 42.5603 39.1041 42.5756C40.3989 43.3571 41.6789 44.1386 42.9738 44.92C44.4621 45.8241 45.9356 46.7282 47.4239 47.6322L48.183 48.0919C48.2127 48.1226 48.2127 48.1532 48.2127 48.1838V55.5695C48.2127 55.6462 48.2127 55.7228 48.1979 55.7841Z" fill="#2B2E3F"/>
<path d="M39 40.7216V40.7062C39.4763 40.4917 39.9377 40.2619 40.4139 40.0473C41.0242 39.7562 41.6344 39.4804 42.2446 39.1893C42.706 38.9747 43.1823 38.7449 43.6436 38.5304C44.3283 38.2086 44.998 37.9021 45.6827 37.5803C46.1441 37.3658 46.6055 37.1513 47.0817 36.9214C47.4092 36.7682 47.7515 36.615 48.0789 36.4618C48.1087 36.4464 48.1533 36.4311 48.1682 36.4005C48.1831 36.4005 48.1831 36.4158 48.1682 36.4311V46.1612C48.1682 46.2072 48.1533 46.2532 48.1831 46.2838C48.1533 46.3298 48.1236 46.2838 48.1087 46.2685C47.9747 46.1919 47.8408 46.1153 47.7068 46.0233C44.8343 44.2765 41.9469 42.5143 39.0744 40.7675C39.0595 40.7522 39.0298 40.7369 39 40.7216Z" fill="#2B2E3F"/>
<path d="M57.3065 42.5297H57.3214C57.3214 42.5603 57.2917 42.5909 57.2768 42.6216C54.5382 46.5903 51.7997 50.5742 49.0611 54.5429C48.7783 54.9566 48.4806 55.3703 48.1979 55.7841C48.183 55.7687 48.183 55.7534 48.183 55.7381V48.0766C48.8081 47.6935 49.4183 47.3258 50.0434 46.9427C52.4545 45.4717 54.8657 44.016 57.2619 42.545C57.2768 42.5603 57.2917 42.545 57.3065 42.5297Z" fill="#2B2E3F"/>
<path d="M48.1831 36.4311V25.184C48.1831 25.1381 48.1682 25.1074 48.198 25.0614C51.2194 30.2253 54.2407 35.3738 57.2472 40.5377C57.2769 40.5837 57.3216 40.645 57.3365 40.7062C57.1281 40.6296 56.9346 40.5224 56.7411 40.4304C56.503 40.3232 56.25 40.2006 56.0118 40.0933C55.863 40.0167 55.6993 39.9554 55.5504 39.8788C55.2974 39.7562 55.0444 39.649 54.7914 39.5264C54.6425 39.4651 54.4937 39.3885 54.3449 39.3119L53.3626 38.8522C53.1989 38.7755 53.0351 38.6989 52.8565 38.6223L52.1421 38.3005C51.9933 38.2392 51.8445 38.1626 51.6956 38.086L50.7133 37.6263C50.5496 37.5497 50.3859 37.4731 50.2073 37.3965L49.4929 37.0747C49.3291 36.9981 49.1803 36.9215 49.0166 36.8448C48.7338 36.7069 48.451 36.569 48.1534 36.4464C48.198 36.4311 48.1831 36.4311 48.1831 36.4311Z" fill="#2B2E3F"/>
<defs>
<filter id="filter0_d_682_11175" x="0" y="0" width="96" height="96" filterUnits="userSpaceOnUse" color-interpolation-filters="sRGB">
<feFlood flood-opacity="0" result="BackgroundImageFix"/>
<feColorMatrix in="SourceAlpha" type="matrix" values="0 0 0 0 0 0 0 0 0 0 0 0 0 0 0 0 0 0 127 0" result="hardAlpha"/>
<feMorphology radius="2" operator="erode" in="SourceAlpha" result="effect1_dropShadow_682_11175"/>
<feOffset dy="8"/>
<feGaussianBlur stdDeviation="10"/>
<feComposite in2="hardAlpha" operator="out"/>
<feColorMatrix type="matrix" values="0 0 0 0 0.1241 0 0 0 0 0.0784522 0 0 0 0 0.254022 0 0 0 0.3 0"/>
<feBlend mode="normal" in2="BackgroundImageFix" result="effect1_dropShadow_682_11175"/>
<feBlend mode="normal" in="SourceGraphic" in2="effect1_dropShadow_682_11175" result="shape"/>
</filter>
<linearGradient id="paint0_linear_682_11175" x1="48" y1="10" x2="48" y2="70" gradientUnits="userSpaceOnUse">
<stop stop-color="white"/>
<stop offset="1" stop-color="white" stop-opacity="0"/>
</linearGradient>
</defs>
</svg>
