<svg width="96" height="96" viewBox="0 0 96 96" fill="none" xmlns="http://www.w3.org/2000/svg">
<circle cx="48" cy="40" r="30" fill="#FFF5FA"/>
<circle cx="48" cy="40" r="34" stroke="url(#paint0_linear_682_11187)" stroke-opacity="0.1" stroke-width="8"/>
<g filter="url(#filter0_d_682_11187)">
<circle cx="48" cy="40" r="30" fill="white"/>
</g>
<path fill-rule="evenodd" clip-rule="evenodd" d="M44.252 55.7494C44.252 56.2824 43.8346 56.5852 43.3191 56.4243C36.4676 54.2386 31.5 47.814 31.5 40.2336C31.5 32.6533 36.4676 26.2285 43.3191 24.0428C43.8346 23.8829 44.252 24.1847 44.252 24.7177V26.0336C44.252 26.3885 43.977 26.8061 43.6389 26.9217C38.2181 28.9123 34.3349 34.1198 34.3349 40.2245C34.3349 46.3293 38.2181 51.5379 43.6389 53.5274C43.977 53.652 44.252 54.0604 44.252 54.4165V55.7494Z" fill="#2B2E3F"/>
<path fill-rule="evenodd" clip-rule="evenodd" d="M49.9132 50.8527C49.9132 51.2442 49.5934 51.564 49.2025 51.564H47.7893C47.3984 51.564 47.0785 51.2442 47.0785 50.8527V48.6137C43.9859 48.1963 42.4756 46.463 42.0667 44.1084C41.9954 43.708 42.3152 43.3438 42.7241 43.3438H44.3415C44.6791 43.3438 44.9636 43.5841 45.0347 43.9212C45.337 45.3254 46.1456 46.4007 48.6246 46.4007C50.4552 46.4007 51.7531 45.3787 51.7531 43.8509C51.7531 42.3218 50.9885 41.7445 48.3048 41.2998C44.3415 40.7667 42.4666 39.5667 42.4666 36.4566C42.4666 34.0574 44.2797 32.1915 47.0876 31.7913V29.5963C47.0876 29.2052 47.4076 28.8851 47.7983 28.8851H49.2115C49.6024 28.8851 49.9222 29.2052 49.9222 29.5963V31.8536C52.206 32.2631 53.6545 33.5596 54.1257 35.71C54.2143 36.1195 53.8945 36.5009 53.4771 36.5009H51.9838C51.664 36.5009 51.3974 36.2874 51.2999 35.9766C50.8999 34.6087 49.9222 34.0223 48.2247 34.0223C46.3498 34.0223 45.3811 34.9285 45.3811 36.1991C45.3811 37.5409 45.9324 38.2158 48.8118 38.6343C52.7035 39.1673 54.7123 40.278 54.7123 43.5934C54.7123 46.1079 52.8459 48.143 49.9222 48.6137V50.8527H49.9132Z" fill="#2B2E3F"/>
<path fill-rule="evenodd" clip-rule="evenodd" d="M53.681 56.4244C53.1659 56.5854 52.748 56.2826 52.748 55.7495V54.4347C52.748 54.0435 52.988 53.6794 53.3611 53.5455C58.7819 51.555 62.6651 46.3474 62.6651 40.2427C62.6651 34.138 58.7819 28.9304 53.3611 26.9399C53.0235 26.8153 52.748 26.4069 52.748 26.0507V24.7359C52.748 24.2029 53.1659 23.8921 53.681 24.0599C60.5324 26.247 65.5 32.6715 65.5 40.2517C65.4915 47.8139 60.5324 54.2297 53.681 56.4244Z" fill="#2B2E3F"/>
<defs>
<filter id="filter0_d_682_11187" x="0" y="0" width="96" height="96" filterUnits="userSpaceOnUse" color-interpolation-filters="sRGB">
<feFlood flood-opacity="0" result="BackgroundImageFix"/>
<feColorMatrix in="SourceAlpha" type="matrix" values="0 0 0 0 0 0 0 0 0 0 0 0 0 0 0 0 0 0 127 0" result="hardAlpha"/>
<feMorphology radius="2" operator="erode" in="SourceAlpha" result="effect1_dropShadow_682_11187"/>
<feOffset dy="8"/>
<feGaussianBlur stdDeviation="10"/>
<feComposite in2="hardAlpha" operator="out"/>
<feColorMatrix type="matrix" values="0 0 0 0 0.1241 0 0 0 0 0.0784522 0 0 0 0 0.254022 0 0 0 0.3 0"/>
<feBlend mode="normal" in2="BackgroundImageFix" result="effect1_dropShadow_682_11187"/>
<feBlend mode="normal" in="SourceGraphic" in2="effect1_dropShadow_682_11187" result="shape"/>
</filter>
<linearGradient id="paint0_linear_682_11187" x1="48" y1="10" x2="48" y2="70" gradientUnits="userSpaceOnUse">
<stop stop-color="white"/>
<stop offset="1" stop-color="white" stop-opacity="0"/>
</linearGradient>
</defs>
</svg>
