<svg width="15" height="16" viewBox="0 0 15 16" fill="none" xmlns="http://www.w3.org/2000/svg">
<path fill-rule="evenodd" clip-rule="evenodd" d="M7.50039 2.30039C4.35237 2.30039 1.80039 4.85237 1.80039 8.00039C1.80039 11.1484 4.35237 13.7004 7.50039 13.7004C10.6484 13.7004 13.2004 11.1484 13.2004 8.00039C13.2004 4.85237 10.6484 2.30039 7.50039 2.30039ZM0.900391 8.00039C0.900391 4.35531 3.85531 1.40039 7.50039 1.40039C11.1455 1.40039 14.1004 4.35531 14.1004 8.00039C14.1004 11.6455 11.1455 14.6004 7.50039 14.6004C3.85531 14.6004 0.900391 11.6455 0.900391 8.00039Z" fill="#EDEDED"/>
<path fill-rule="evenodd" clip-rule="evenodd" d="M13.5004 8.40034H1.50037V7.60034H13.5004V8.40034Z" fill="#EDEDED"/>
<path fill-rule="evenodd" clip-rule="evenodd" d="M7.10034 14.0004V2.00037H7.90034V14.0004H7.10034Z" fill="#EDEDED"/>
<path fill-rule="evenodd" clip-rule="evenodd" d="M10.3754 8.00035C10.3754 5.8276 9.59407 3.67815 8.06226 2.25693L8.53836 1.74377C10.24 3.32255 11.0754 5.6731 11.0754 8.00035C11.0754 10.3276 10.24 12.6782 8.53836 14.2569L8.06226 13.7438C9.59407 12.3225 10.3754 10.1731 10.3754 8.00035Z" fill="#EDEDED"/>
<path fill-rule="evenodd" clip-rule="evenodd" d="M4.00012 8.00037C4.00012 5.67648 4.80829 3.32714 6.45811 1.74756L6.9422 2.25318C5.45863 3.67359 4.70012 5.82426 4.70012 8.00037C4.70013 10.1765 5.45865 12.3271 6.94222 13.7476L6.45812 14.2532C4.80831 12.6736 4.00013 10.3243 4.00012 8.00037Z" fill="#EDEDED"/>
<path fill-rule="evenodd" clip-rule="evenodd" d="M7.50038 4.45837C9.66971 4.45837 11.8757 4.85952 13.3711 5.69485C13.5398 5.78911 13.6002 6.00234 13.5059 6.17109C13.4117 6.33985 13.1985 6.40023 13.0297 6.30596C11.6798 5.55192 9.60842 5.15837 7.50038 5.15837C5.39234 5.15837 3.32095 5.55192 1.97107 6.30596C1.80231 6.40023 1.58909 6.33985 1.49482 6.17109C1.40055 6.00234 1.46094 5.78911 1.62969 5.69485C3.12509 4.85952 5.33106 4.45837 7.50038 4.45837Z" fill="#EDEDED"/>
<path fill-rule="evenodd" clip-rule="evenodd" d="M7.50038 11.3503C9.66971 11.3503 11.8757 10.9492 13.3711 10.1139C13.5398 10.0196 13.6002 9.80638 13.5059 9.63762C13.4117 9.46887 13.1985 9.40848 13.0297 9.50275C11.6798 10.2568 9.60842 10.6503 7.50038 10.6503C5.39234 10.6503 3.32095 10.2568 1.97107 9.50275C1.80231 9.40848 1.58909 9.46887 1.49482 9.63762C1.40055 9.80638 1.46094 10.0196 1.62969 10.1139C3.12509 10.9492 5.33106 11.3503 7.50038 11.3503Z" fill="#EDEDED"/>
</svg>
