<svg width="48" height="48" viewBox="0 0 48 48" fill="none" xmlns="http://www.w3.org/2000/svg">
<mask id="mask0_585_20438" style="mask-type:alpha" maskUnits="userSpaceOnUse" x="0" y="0" width="48" height="48">
<circle cx="24" cy="24" r="24" fill="url(#paint0_angular_585_20438)"/>
<circle cx="24" cy="24" r="24" fill="url(#paint1_radial_585_20438)" fill-opacity="0.8"/>
</mask>
<g mask="url(#mask0_585_20438)">
<circle cx="24.1343" cy="24.1348" r="38.9663" fill="url(#paint2_radial_585_20438)"/>
</g>
<path d="M30.3442 27.5352C30.3442 24.0498 28.253 22.8548 24.0704 22.357C21.0829 21.9586 20.4854 21.162 20.4854 19.7676C20.4854 18.3733 21.4813 17.4772 23.4729 17.4772C25.2654 17.4772 26.2614 18.0747 26.7592 19.5685C26.8589 19.8673 27.1576 20.0664 27.4564 20.0664H29.0496C29.448 20.0664 29.7467 19.7676 29.7467 19.3694V19.2698C29.3483 17.0788 27.5558 15.386 25.2654 15.1869V12.7968C25.2654 12.3984 24.9667 12.0997 24.4688 12H22.9751C22.5767 12 22.2779 12.2988 22.1782 12.7968V15.0872C19.1907 15.4856 17.2988 17.4772 17.2988 19.9669C17.2988 23.2532 19.2904 24.5477 23.4729 25.0458C26.2614 25.5436 27.1576 26.1411 27.1576 27.7345C27.1576 29.328 25.7633 30.4233 23.8713 30.4233C21.282 30.4233 20.3857 29.3277 20.087 27.834C19.9875 27.4358 19.6888 27.2365 19.39 27.2365H17.6969C17.2988 27.2365 17 27.5352 17 27.9336V28.0333C17.3982 30.5228 18.9916 32.3153 22.2779 32.8134V35.2034C22.2779 35.6016 22.5767 35.9003 23.0745 36H24.5683C24.9667 36 25.2654 35.7012 25.3651 35.2034V32.8134C28.3526 32.3153 30.3442 30.224 30.3442 27.5352Z" fill="white"/>
<defs>
<radialGradient id="paint0_angular_585_20438" cx="0" cy="0" r="1" gradientUnits="userSpaceOnUse" gradientTransform="translate(35.7303 36.809) rotate(53.7462) scale(37.6202 33.3136)">
<stop offset="0.136727" stop-color="#DCFDFF"/>
<stop offset="0.416032" stop-color="#01F4A6"/>
<stop offset="0.764997" stop-color="#FB9600"/>
<stop offset="1" stop-color="#C9BBFF"/>
</radialGradient>
<radialGradient id="paint1_radial_585_20438" cx="0" cy="0" r="1" gradientUnits="userSpaceOnUse" gradientTransform="translate(1.88764 1.07865) rotate(50.4344) scale(86.5767)">
<stop offset="0.229518" stop-opacity="0"/>
<stop offset="0.627177"/>
</radialGradient>
<radialGradient id="paint2_radial_585_20438" cx="0" cy="0" r="1" gradientUnits="userSpaceOnUse" gradientTransform="translate(6 -4.5) rotate(50.1944) scale(113.249 98.0369)">
<stop offset="0.111622" stop-color="#00EF8B"/>
<stop offset="0.364087" stop-color="#3ED6BB"/>
<stop offset="0.534435" stop-color="#34F0CF"/>
</radialGradient>
</defs>
</svg>
