<svg width="48" height="48" viewBox="0 0 48 48" fill="none" xmlns="http://www.w3.org/2000/svg">
<circle cx="24" cy="24" r="24" fill="#369EFF"/>
<path d="M30.2322 27.2406C30.2322 24.0457 28.3152 22.9502 24.4812 22.4939C21.7426 22.1287 21.1949 21.3985 21.1949 20.1203C21.1949 18.8422 22.1079 18.0208 23.9335 18.0208C25.5766 18.0208 26.4896 18.5685 26.9459 19.9378C27.0373 20.2117 27.3111 20.3942 27.585 20.3942H29.0454C29.4106 20.3942 29.6845 20.1203 29.6845 19.7553V19.664C29.3193 17.6556 27.6761 16.1038 25.5766 15.9213V13.7304C25.5766 13.3652 25.3028 13.0914 24.8464 13H23.4771C23.1119 13 22.8381 13.2739 22.7467 13.7304V15.8299C20.0081 16.1952 18.2739 18.0208 18.2739 20.303C18.2739 23.3155 20.0995 24.502 23.9335 24.9586C26.4896 25.415 27.3111 25.9627 27.3111 27.4233C27.3111 28.884 26.033 29.8881 24.2987 29.8881C21.9251 29.8881 21.1036 28.8838 20.8297 27.5145C20.7386 27.1495 20.4647 26.9668 20.1909 26.9668H18.6389C18.2739 26.9668 18 27.2406 18 27.6058V27.6972C18.365 29.9792 19.8256 31.6223 22.8381 32.0789V34.2698C22.8381 34.6348 23.1119 34.9086 23.5683 35H24.9376C25.3028 35 25.5766 34.7261 25.668 34.2698V32.0789C28.4066 31.6223 30.2322 29.7053 30.2322 27.2406Z" fill="#EAF6FF"/>
</svg>
