<svg width="19" height="14" viewBox="0 0 19 14" fill="none" xmlns="http://www.w3.org/2000/svg">
<path d="M15.7188 1.98438C14.0938 1.17969 11.9453 0.75 9.5 0.75C7.05469 0.75 4.90625 1.17969 3.28125 1.98438C1.65625 2.78906 0.75 3.9375 0.75 5.125V8.875C0.75 10.0625 1.67188 11.2109 3.28125 12.0156C4.89062 12.8203 7.05469 13.25 9.5 13.25C11.9453 13.25 14.0938 12.8203 15.7188 12.0156C17.3438 11.2109 18.25 10.0625 18.25 8.875V5.125C18.25 3.9375 17.3281 2.78906 15.7188 1.98438ZM8.875 9.49219V11.9922C7.39062 11.9375 6.14062 11.7188 5.125 11.4062V8.95312C6.24219 9.26562 7.50781 9.44531 8.875 9.49219ZM10.125 9.49219C11.4922 9.44531 12.7578 9.26562 13.875 8.95312V11.4062C12.8594 11.7188 11.6094 11.9375 10.125 11.9922V9.49219ZM2 8.875V7.42969C2.39324 7.75704 2.82321 8.03757 3.28125 8.26562L3.875 8.53125V10.9062C2.64062 10.2969 2 9.52344 2 8.875ZM15.125 10.9062V8.53125L15.7188 8.26562C16.1768 8.03757 16.6068 7.75704 17 7.42969V8.875C17 9.52344 16.3594 10.2969 15.125 10.9062Z" fill="#369EFF"/>
</svg>
