<svg width="32" height="31" viewBox="0 0 32 31" fill="none" xmlns="http://www.w3.org/2000/svg">
<path fill-rule="evenodd" clip-rule="evenodd" d="M32 15.98L32 14.5977C32 11.1472 31.4059 8.6846 30.2903 6.58649C29.1748 4.48835 27.5378 2.84174 25.4518 1.71965C23.3659 0.597556 20.9177 -4.84424e-07 17.4871 -6.34378e-07L14.5129 -7.64386e-07C11.0824 -9.14339e-07 8.6341 0.597555 6.54819 1.71965C4.46228 2.84174 2.82523 4.48834 1.70965 6.58649C0.594111 8.68459 6.25963e-07 11.1472 4.75134e-07 14.5977L4.14713e-07 15.98C2.63883e-07 19.4306 0.59411 21.8932 1.70965 23.9913C2.82523 26.0894 4.46228 27.736 6.54819 28.8581C8.6341 29.9802 11.0824 30.5778 14.5129 30.5778L17.4871 30.5778C20.9177 30.5778 23.3659 29.9802 25.4518 28.8581C27.5377 27.736 29.1748 26.0894 30.2903 23.9913C31.4059 21.8932 32 19.4306 32 15.98ZM18.7723 13.939L18.7722 13.939C18.329 13.8793 18.1074 13.8495 17.9491 13.716C17.9301 13.7 17.9119 13.683 17.8948 13.6651C17.7513 13.5158 17.7071 13.2966 17.6187 12.8582L17.3944 11.7455C16.8531 9.05925 16.5824 7.71614 16.0003 7.71614C15.4182 7.71614 15.1475 9.05925 14.6061 11.7454L14.3818 12.8582C14.2935 13.2966 14.2493 13.5158 14.1058 13.6651C14.0886 13.683 14.0704 13.7 14.0515 13.716C13.8932 13.8495 13.6716 13.8793 13.2283 13.939C9.67026 14.4179 7.89122 14.6574 7.82466 15.2027C7.81764 15.26 7.81764 15.3178 7.82466 15.3751C7.89122 15.9204 9.67026 16.1598 13.2283 16.6388C13.6716 16.6985 13.8932 16.7283 14.0515 16.8618C14.0704 16.8778 14.0886 16.8948 14.1058 16.9126C14.2493 17.062 14.2935 17.2811 14.3818 17.7196L14.6061 18.8323C15.1475 21.5185 15.4182 22.8616 16.0003 22.8616C16.5824 22.8616 16.8531 21.5185 17.3944 18.8323L17.6187 17.7196C17.7071 17.2811 17.7513 17.062 17.8948 16.9126C17.9119 16.8948 17.9301 16.8778 17.9491 16.8618C18.1074 16.7283 18.329 16.6985 18.7722 16.6388L18.7723 16.6388C22.3303 16.1598 24.1093 15.9204 24.1759 15.3751C24.1829 15.3178 24.1829 15.26 24.1759 15.2027C24.1093 14.6574 22.3303 14.4179 18.7723 13.939Z" fill="white"/>
</svg>
