<!-- className="inline-block fill-gray-light-12 dark:fill-gray-dark-12" -->
<svg width="15" height="16" viewBox="0 0 15 16" fill="none" xmlns="http://www.w3.org/2000/svg">
    <path fillRule="evenodd" clipRule="evenodd" d="M7.50039 2.2999C4.35237 2.2999 1.80039 4.85188 1.80039 7.9999C1.80039 11.1479 4.35237 13.6999 7.50039 13.6999C10.6484 13.6999 13.2004 11.1479 13.2004 7.9999C13.2004 4.85188 10.6484 2.2999 7.50039 2.2999ZM0.900391 7.9999C0.900391 4.35482 3.85531 1.3999 7.50039 1.3999C11.1455 1.3999 14.1004 4.35482 14.1004 7.9999C14.1004 11.645 11.1455 14.5999 7.50039 14.5999C3.85531 14.5999 0.900391 11.645 0.900391 7.9999Z" />
    <path fillRule="evenodd" clipRule="evenodd" d="M13.5004 8.39985H1.50037V7.59985H13.5004V8.39985Z" />
    <path fillRule="evenodd" clipRule="evenodd" d="M7.10034 13.9999V1.99988H7.90034V13.9999H7.10034Z" />
    <path fillRule="evenodd" clipRule="evenodd" d="M10.3754 7.99986C10.3754 5.82712 9.59407 3.67766 8.06226 2.25644L8.53836 1.74329C10.24 3.32206 11.0754 5.67261 11.0754 7.99986C11.0754 10.3271 10.24 12.6777 8.53836 14.2564L8.06226 13.7433C9.59407 12.3221 10.3754 10.1726 10.3754 7.99986Z" />
    <path fillRule="evenodd" clipRule="evenodd" d="M4.00012 7.99988C4.00012 5.67599 4.80829 3.32666 6.45811 1.74707L6.9422 2.25269C5.45863 3.6731 4.70012 5.82377 4.70012 7.99988C4.70013 10.176 5.45865 12.3267 6.94222 13.7471L6.45812 14.2527C4.80831 12.6731 4.00013 10.3238 4.00012 7.99988Z" />
    <path fillRule="evenodd" clipRule="evenodd" d="M7.50038 4.45789C9.66971 4.45789 11.8757 4.85903 13.3711 5.69436C13.5398 5.78863 13.6002 6.00185 13.5059 6.1706C13.4117 6.33936 13.1985 6.39974 13.0297 6.30548C11.6798 5.55143 9.60842 5.15789 7.50038 5.15789C5.39234 5.15789 3.32095 5.55143 1.97107 6.30548C1.80231 6.39974 1.58909 6.33936 1.49482 6.1706C1.40055 6.00185 1.46094 5.78863 1.62969 5.69436C3.12509 4.85903 5.33106 4.45789 7.50038 4.45789Z" />
    <path fillRule="evenodd" clipRule="evenodd" d="M7.50038 11.3499C9.66971 11.3499 11.8757 10.9487 13.3711 10.1134C13.5398 10.0191 13.6002 9.80589 13.5059 9.63714C13.4117 9.46838 13.1985 9.408 13.0297 9.50226C11.6798 10.2563 9.60842 10.6499 7.50038 10.6499C5.39234 10.6499 3.32095 10.2563 1.97107 9.50226C1.80231 9.408 1.58909 9.46838 1.49482 9.63714C1.40055 9.80589 1.46094 10.0191 1.62969 10.1134C3.12509 10.9487 5.33106 11.3499 7.50038 11.3499Z" />
</svg>