<!-- className="inline-block fill-gray-light-12 dark:fill-gray-dark-12" -->
<svg width="15" height="16" viewBox="0 0 15 16" fill="none" xmlns="http://www.w3.org/2000/svg">
    <path
        fillRule="evenodd"
        clipRule="evenodd"
        d="M7.499 1.3501C3.8273 1.3501 0.849609 4.3274 0.849609 8.00032C0.849609 10.938 2.75486 13.4307 5.39739 14.3105C5.7301 14.3713 5.85135 14.1659 5.85135 13.9896C5.85135 13.8316 5.84563 13.4135 5.84237 12.8588C3.99264 13.2605 3.60236 11.9672 3.60236 11.9672C3.29986 11.1989 2.86386 10.9943 2.86386 10.9943C2.26008 10.582 2.90958 10.5902 2.90958 10.5902C3.57705 10.6371 3.92814 11.2756 3.92814 11.2756C4.52131 12.2917 5.48475 11.9982 5.8636 11.828C5.92402 11.3985 6.09588 11.1054 6.28571 10.9392C4.80911 10.771 3.25659 10.2007 3.25659 7.6525C3.25659 6.92624 3.51582 6.33307 3.9412 5.86809C3.87262 5.69989 3.64441 5.02384 4.00652 4.10816C4.00652 4.10816 4.56458 3.92935 5.83502 4.78951C6.36532 4.64213 6.9344 4.56865 7.49981 4.56579C8.06482 4.56865 8.63349 4.64213 9.16461 4.78951C10.4342 3.92935 10.9915 4.10816 10.9915 4.10816C11.3544 5.02384 11.1262 5.69989 11.058 5.86809C11.4842 6.33307 11.7414 6.92624 11.7414 7.6525C11.7414 10.2073 10.1864 10.7694 8.70534 10.9339C8.94375 11.1393 9.15645 11.545 9.15645 12.1656C9.15645 13.0543 9.14828 13.7716 9.14828 13.9896C9.14828 14.1676 9.26831 14.3745 9.60551 14.3096C12.246 13.4282 14.1496 10.9376 14.1496 8.00032C14.1496 4.3274 11.1719 1.3501 7.499 1.3501Z"
    />
</svg>