<!-- className="inline-block fill-gray-light-12 dark:fill-gray-dark-12" -->
<svg width="15" height="15" viewBox="0 0 15 15" fill="none" xmlns="http://www.w3.org/2000/svg">
    <g clipPath="url(#clip0_481_19437)">
        <path
            fillRule="evenodd"
            clipRule="evenodd"
            d="M5.07822 1.80611C5.03464 1.79926 4.99034 1.79821 4.94647 1.80299C4.10208 1.89496 2.81948 2.34982 2.06223 2.76053C2.01005 2.78883 1.96333 2.8262 1.92425 2.87088C1.60818 3.23226 1.3226 3.82072 1.09913 4.37441C0.869176 4.94414 0.678732 5.54458 0.570145 5.97872C0.216998 7.39064 0.0231337 9.08579 -0.00189248 10.6923C-0.00319648 10.776 0.0165382 10.8587 0.0555016 10.9328C0.359172 11.5102 1.00949 12.0436 1.65842 12.4324C2.31496 12.8258 3.08188 13.1378 3.70254 13.1977C3.85826 13.2128 4.01205 13.154 4.11813 13.039C4.27391 12.8702 4.53704 12.478 4.7348 12.1753C4.84011 12.0141 4.93753 11.8616 5.00853 11.7495C5.01338 11.7419 5.0181 11.7344 5.0227 11.7271C5.69509 11.8888 6.51587 12.0002 7.50063 12.0002C8.48434 12.0002 9.30442 11.889 9.97641 11.7277C9.9809 11.7348 9.98552 11.7421 9.99025 11.7495C10.0613 11.8616 10.1587 12.0141 10.264 12.1753C10.4617 12.478 10.7249 12.8702 10.8806 13.039C10.9867 13.154 11.1405 13.2128 11.2962 13.1977C11.9169 13.1378 12.6838 12.8258 13.3404 12.4324C13.9893 12.0436 14.6396 11.5102 14.9433 10.9328C14.9822 10.8587 15.002 10.776 15.0007 10.6923C14.9756 9.08579 14.7818 7.39064 14.4286 5.97872C14.32 5.54458 14.1296 4.94414 13.8997 4.37441C13.6762 3.82072 13.3906 3.23226 13.0745 2.87088C13.0355 2.8262 12.9887 2.78883 12.9366 2.76053C12.1793 2.34982 10.8967 1.89496 10.0523 1.80299C10.0084 1.79821 9.96414 1.79926 9.92056 1.80611C9.70958 1.83926 9.52881 1.94778 9.39664 2.04762C9.25687 2.15321 9.12735 2.28296 9.01579 2.41388C8.85252 2.60549 8.69418 2.83969 8.59316 3.0617C8.25248 3.02279 7.88775 3.00003 7.50061 3.00003C7.1126 3.00003 6.74708 3.02289 6.40574 3.06197C6.30472 2.83988 6.14632 2.60556 5.98299 2.41388C5.87143 2.28296 5.74191 2.15321 5.60214 2.04762C5.46997 1.94778 5.2892 1.83926 5.07822 1.80611ZM10.9667 11.4207C11.0088 11.4863 11.0542 11.5565 11.1011 11.6283C11.2312 11.8274 11.3595 12.0178 11.4599 12.1584C11.8518 12.0683 12.3485 11.8609 12.8264 11.5746C13.3661 11.2512 13.7916 10.881 13.9982 10.5682C13.9653 9.06494 13.7796 7.50509 13.4585 6.22136C13.3615 5.8334 13.1855 5.2769 12.9723 4.74869C12.7723 4.25319 12.5602 3.83541 12.3755 3.59495C11.7287 3.2605 10.7137 2.90752 10.0501 2.81071C10.037 2.81866 10.0201 2.82988 9.99941 2.84554C9.93276 2.89589 9.85535 2.97044 9.77694 3.06246C9.72497 3.12345 9.67876 3.18464 9.63904 3.24253C10.0066 3.32851 10.3311 3.4291 10.609 3.53013C10.9755 3.66342 11.2613 3.79763 11.4585 3.90049C11.5571 3.95194 11.6336 3.99562 11.6872 4.02751C11.714 4.04346 11.735 4.05648 11.7502 4.06606L11.7685 4.07779L11.7743 4.08161L11.7764 4.08299L11.7773 4.08354L11.7776 4.08379C11.7778 4.0839 11.778 4.084 11.5153 4.47799L11.778 4.08401C12.0077 4.23718 12.0698 4.54762 11.9166 4.77738C11.7638 5.00671 11.4542 5.06899 11.2246 4.91693L11.2242 4.91671L11.2238 4.91643L11.2236 4.91627L11.2236 4.91625C11.2234 4.91615 11.2233 4.91605 11.5006 4.50003L11.2233 4.91605L11.2162 4.91154C11.2081 4.90647 11.1945 4.898 11.1754 4.88661C11.1371 4.86382 11.077 4.82937 10.9959 4.78707C10.8337 4.70244 10.5882 4.58664 10.2672 4.46993C9.62537 4.23652 8.68334 4.00003 7.50061 4.00003C6.31788 4.00003 5.37586 4.23652 4.73398 4.46993C4.41301 4.58664 4.16755 4.70244 4.00533 4.78707C3.92426 4.82937 3.86411 4.86382 3.82585 4.88661C3.80673 4.898 3.79309 4.90647 3.78506 4.91154L3.77725 4.91653L3.7774 4.91643C3.77749 4.91637 3.77758 4.91631 3.77767 4.91625L3.7774 4.91643L3.7774 4.91643C3.54769 5.06913 3.23764 5.00696 3.08459 4.77738C2.93141 4.54762 2.99349 4.23718 3.22326 4.08401L3.50061 4.50003C3.22326 4.08401 3.22342 4.0839 3.22359 4.08379L3.22395 4.08354L3.22479 4.08299L3.22688 4.08161L3.23273 4.07779L3.25107 4.06606C3.26624 4.05648 3.28727 4.04346 3.31404 4.02751C3.36758 3.99562 3.44415 3.95194 3.54276 3.90049C3.73992 3.79763 4.02571 3.66342 4.39223 3.53013C4.66955 3.42929 4.99335 3.32889 5.36008 3.24302C5.32028 3.18499 5.27396 3.12362 5.22184 3.06246C5.14343 2.97044 5.06602 2.89589 4.99937 2.84554C4.97864 2.82988 4.96173 2.81866 4.94864 2.81071C4.2851 2.90752 3.27013 3.2605 2.62328 3.59495C2.43856 3.83541 2.22643 4.25319 2.02644 4.74869C1.81325 5.2769 1.6373 5.8334 1.54026 6.22136C1.21918 7.50509 1.03345 9.06494 1.0006 10.5682C1.20715 10.881 1.63266 11.2512 2.17237 11.5746C2.65026 11.8609 3.14703 12.0683 3.53889 12.1584C3.63927 12.0178 3.76758 11.8274 3.89766 11.6283C3.94479 11.5562 3.99037 11.4857 4.03262 11.42C3.93744 11.383 3.8471 11.3454 3.7615 11.3077C3.36109 11.1312 3.06684 10.9522 2.86785 10.8124C2.76841 10.7425 2.69289 10.6825 2.63989 10.6376C2.61339 10.6152 2.59252 10.5966 2.57712 10.5824C2.56941 10.5752 2.56307 10.5693 2.55807 10.5645L2.55158 10.5582L2.54908 10.5557L2.54802 10.5546L2.54753 10.5542C2.5473 10.5539 2.54708 10.5537 2.90063 10.2002L2.54708 10.5537C2.35182 10.3584 2.35182 10.0419 2.54708 9.8466C2.74132 9.65237 3.05559 9.65134 3.25109 9.84353L3.25496 9.84715C3.26021 9.85199 3.2705 9.86127 3.28599 9.87439C3.31697 9.90062 3.3688 9.94218 3.44279 9.99418C3.59068 10.0981 3.82767 10.2441 4.16476 10.3926C4.8372 10.6889 5.91837 11.0002 7.50063 11.0002C9.0829 11.0002 10.1641 10.6889 10.8365 10.3926C11.1736 10.2441 11.4106 10.0981 11.5585 9.99418C11.6325 9.94218 11.6843 9.90061 11.7153 9.87439C11.7308 9.86127 11.7411 9.85199 11.7463 9.84715L11.7502 9.84354C11.9457 9.65134 12.26 9.65236 12.4542 9.8466C12.6495 10.0419 12.6495 10.3584 12.4542 10.5537L12.1056 10.2051C12.4542 10.5537 12.454 10.5539 12.4537 10.5542L12.4533 10.5546L12.4522 10.5557L12.4497 10.5582L12.4432 10.5645C12.4382 10.5693 12.4319 10.5752 12.4242 10.5824C12.4087 10.5966 12.3879 10.6152 12.3614 10.6376C12.3084 10.6825 12.2329 10.7425 12.1334 10.8124C11.9344 10.9522 11.6402 11.1312 11.2398 11.3077C11.1536 11.3457 11.0626 11.3835 10.9667 11.4207ZM4.0811 7.01225C4.32473 6.74987 4.65537 6.60165 5.00068 6.60001C5.34599 6.60165 5.67664 6.74987 5.92027 7.01225C6.1639 7.27462 6.30068 7.62978 6.30068 8.00001C6.30068 8.37024 6.1639 8.72539 5.92027 8.98777C5.67664 9.25014 5.34599 9.39836 5.00068 9.40001C4.65537 9.39836 4.32473 9.25014 4.0811 8.98777C3.83746 8.72539 3.70068 8.37024 3.70068 8.00001C3.70068 7.62978 3.83746 7.27462 4.0811 7.01225ZM9.99946 6.60001C9.65415 6.60165 9.32351 6.74987 9.07987 7.01225C8.83624 7.27462 8.69946 7.62978 8.69946 8.00001C8.69946 8.37024 8.83624 8.72539 9.07987 8.98777C9.32351 9.25014 9.65415 9.39836 9.99946 9.40001C10.3448 9.39836 10.6754 9.25014 10.9191 8.98777C11.1627 8.72539 11.2995 8.37024 11.2995 8.00001C11.2995 7.62978 11.1627 7.27462 10.9191 7.01225C10.6754 6.74987 10.3448 6.60165 9.99946 6.60001Z"
        />
    </g>
    <defs>
        <clipPath id="clip0_481_19437">
            <rect width="15" height="15" fill="white" />
        </clipPath>
    </defs>
</svg>