<svg width="48" height="49" viewBox="0 0 48 49" fill="none" xmlns="http://www.w3.org/2000/svg">
<circle cx="24" cy="24" r="22.5" fill="#F9EBDB" stroke="#F5DBBF" stroke-width="3"/>
<g filter="url(#filter0_d_2791_169811)">
<path d="M34.3441 21.854C34.7678 19.0171 32.6078 17.492 29.6543 16.4746L30.6124 12.6317L28.2725 12.0487L27.3398 15.7904C26.7255 15.6371 26.0939 15.4926 25.4663 15.3493L26.4057 11.583L24.0678 11L23.109 14.8416C22.6 14.7257 22.1003 14.6111 21.6153 14.4905L21.618 14.4785L18.392 13.673L17.7697 16.1715C17.7697 16.1715 19.5053 16.5692 19.4686 16.5939C20.416 16.8304 20.5879 17.4573 20.5586 17.9544L19.4673 22.3323C19.5326 22.349 19.6172 22.373 19.7105 22.4103L19.464 22.349L17.9336 28.4819C17.8176 28.7697 17.5238 29.2014 16.8616 29.0375C16.8849 29.0715 15.1613 28.6131 15.1613 28.6131L14 31.2915L17.0448 32.0503C17.6111 32.1922 18.1661 32.3408 18.7118 32.4807L17.7437 36.3683L20.0802 36.9513L21.0397 33.1057C21.6773 33.2789 22.2969 33.4388 22.9032 33.5894L21.9478 37.417L24.287 38L25.2551 34.1204C29.2439 34.8753 32.2441 34.5708 33.5053 30.9637C34.5227 28.0588 33.4553 26.3832 31.3566 25.2898C32.885 24.9361 34.0363 23.9307 34.3434 21.854H34.3441ZM28.9987 29.3487C28.2752 32.2535 23.3849 30.6838 21.7985 30.2894L23.0831 25.1399C24.6687 25.5357 29.7529 26.3192 28.9994 29.3487H28.9987ZM29.7216 21.812C29.062 24.4544 24.9912 23.1119 23.67 22.7827L24.8346 18.1123C26.1558 18.4414 30.4092 19.0557 29.7216 21.812Z" fill="#FA911B"/>
</g>
<path d="M31.9996 22.6C33.9622 22.6 35.8444 23.3797 37.2322 24.7674C38.62 26.1552 39.3996 28.0374 39.3996 30C39.3996 31.9626 38.62 33.8448 37.2322 35.2326C35.8444 36.6204 33.9622 37.4 31.9996 37.4C30.037 37.4 28.1548 36.6204 26.767 35.2326C25.3793 33.8448 24.5996 31.9626 24.5996 30C24.5996 28.0374 25.3793 26.1552 26.767 24.7674C28.1548 23.3797 30.037 22.6 31.9996 22.6Z" fill="#FA911B" stroke="#FA911B" stroke-width="2"/>
<path fill-rule="evenodd" clip-rule="evenodd" d="M31.9996 23.6C33.697 23.6 35.3249 24.2743 36.5251 25.4745C37.7253 26.6748 38.3996 28.3026 38.3996 30C38.3996 31.6974 37.7253 33.3253 36.5251 34.5255C35.3249 35.7257 33.697 36.4 31.9996 36.4C30.3022 36.4 28.6744 35.7257 27.4741 34.5255C26.2739 33.3253 25.5996 31.6974 25.5996 30C25.5996 28.3026 26.2739 26.6748 27.4741 25.4745C28.6744 24.2743 30.3022 23.6 31.9996 23.6ZM34.9652 30.5656L32.5652 32.9656C32.4152 33.1156 32.2117 33.1999 31.9996 33.1999C31.7875 33.1999 31.584 33.1156 31.434 32.9656L29.034 30.5656C28.8883 30.4147 28.8076 30.2127 28.8095 30.0029C28.8113 29.7931 28.8954 29.5925 29.0438 29.4442C29.1921 29.2958 29.3927 29.2117 29.6025 29.2099C29.8122 29.2081 30.0143 29.2887 30.1652 29.4344L31.1996 30.4688V27.6C31.1996 27.3879 31.2839 27.1844 31.4339 27.0343C31.584 26.8843 31.7874 26.8 31.9996 26.8C32.2118 26.8 32.4153 26.8843 32.5653 27.0343C32.7153 27.1844 32.7996 27.3879 32.7996 27.6V30.4688L33.834 29.4344C33.9849 29.2887 34.187 29.2081 34.3967 29.2099C34.6065 29.2117 34.8071 29.2958 34.9555 29.4442C35.1038 29.5925 35.1879 29.7931 35.1897 30.0029C35.1916 30.2127 35.1109 30.4147 34.9652 30.5656Z" fill="#FEF8F1"/>
<defs>
<filter id="filter0_d_2791_169811" x="7" y="8" width="34.3965" height="41" filterUnits="userSpaceOnUse" color-interpolation-filters="sRGB">
<feFlood flood-opacity="0" result="BackgroundImageFix"/>
<feColorMatrix in="SourceAlpha" type="matrix" values="0 0 0 0 0 0 0 0 0 0 0 0 0 0 0 0 0 0 127 0" result="hardAlpha"/>
<feOffset dy="4"/>
<feGaussianBlur stdDeviation="3.5"/>
<feComposite in2="hardAlpha" operator="out"/>
<feColorMatrix type="matrix" values="0 0 0 0 0.980392 0 0 0 0 0.568627 0 0 0 0 0.105882 0 0 0 0.5 0"/>
<feBlend mode="normal" in2="BackgroundImageFix" result="effect1_dropShadow_2791_169811"/>
<feBlend mode="normal" in="SourceGraphic" in2="effect1_dropShadow_2791_169811" result="shape"/>
</filter>
</defs>
</svg>
