<svg width="48" height="49" viewBox="0 0 48 49" fill="none" xmlns="http://www.w3.org/2000/svg">
<circle cx="24" cy="24" r="22.5" fill="#F9EBDB" stroke="#F5DBBF" stroke-width="3"/>
<g filter="url(#filter0_d_2791_169815)">
<path d="M34.3441 21.854C34.7678 19.0171 32.6078 17.492 29.6543 16.4746L30.6124 12.6317L28.2725 12.0487L27.3398 15.7904C26.7255 15.6371 26.0939 15.4926 25.4663 15.3493L26.4057 11.583L24.0678 11L23.109 14.8416C22.6 14.7257 22.1003 14.6111 21.6153 14.4905L21.618 14.4785L18.392 13.673L17.7697 16.1715C17.7697 16.1715 19.5053 16.5692 19.4686 16.5939C20.416 16.8304 20.5879 17.4573 20.5586 17.9544L19.4673 22.3323C19.5326 22.349 19.6172 22.373 19.7105 22.4103L19.464 22.349L17.9336 28.4819C17.8176 28.7697 17.5238 29.2014 16.8616 29.0375C16.8849 29.0715 15.1613 28.6131 15.1613 28.6131L14 31.2915L17.0448 32.0503C17.6111 32.1922 18.1661 32.3408 18.7118 32.4807L17.7437 36.3683L20.0802 36.9513L21.0397 33.1057C21.6773 33.2789 22.2969 33.4388 22.9032 33.5894L21.9478 37.417L24.287 38L25.2551 34.1204C29.2439 34.8753 32.2441 34.5708 33.5053 30.9637C34.5227 28.0588 33.4553 26.3832 31.3566 25.2898C32.885 24.9361 34.0363 23.9307 34.3434 21.854H34.3441ZM28.9987 29.3487C28.2752 32.2535 23.3849 30.6838 21.7985 30.2894L23.0831 25.1399C24.6687 25.5357 29.7529 26.3192 28.9994 29.3487H28.9987ZM29.7216 21.812C29.062 24.4544 24.9912 23.1119 23.67 22.7827L24.8346 18.1123C26.1558 18.4414 30.4092 19.0557 29.7216 21.812Z" fill="#FA911B"/>
</g>
<path d="M15.9996 37.4C17.9622 37.4 19.8444 36.6203 21.2322 35.2326C22.62 33.8448 23.3996 31.9626 23.3996 30C23.3996 28.0374 22.62 26.1552 21.2322 24.7674C19.8444 23.3796 17.9622 22.6 15.9996 22.6C14.037 22.6 12.1548 23.3796 10.767 24.7674C9.37925 26.1552 8.59961 28.0374 8.59961 30C8.59961 31.9626 9.37925 33.8448 10.767 35.2326C12.1548 36.6203 14.037 37.4 15.9996 37.4Z" fill="#FA911B" stroke="#FA911B" stroke-width="2"/>
<path fill-rule="evenodd" clip-rule="evenodd" d="M15.9996 36.4C17.697 36.4 19.3249 35.7257 20.5251 34.5255C21.7253 33.3252 22.3996 31.6974 22.3996 30C22.3996 28.3026 21.7253 26.6747 20.5251 25.4745C19.3249 24.2743 17.697 23.6 15.9996 23.6C14.3022 23.6 12.6744 24.2743 11.4741 25.4745C10.2739 26.6747 9.59961 28.3026 9.59961 30C9.59961 31.6974 10.2739 33.3252 11.4741 34.5255C12.6744 35.7257 14.3022 36.4 15.9996 36.4ZM18.9652 29.4344L16.5652 27.0344C16.4152 26.8844 16.2117 26.8001 15.9996 26.8001C15.7875 26.8001 15.584 26.8844 15.434 27.0344L13.034 29.4344C12.8883 29.5853 12.8076 29.7873 12.8095 29.9971C12.8113 30.2069 12.8954 30.4075 13.0438 30.5558C13.1921 30.7042 13.3927 30.7883 13.6025 30.7901C13.8122 30.7919 14.0143 30.7113 14.1652 30.5656L15.1996 29.5312V32.4C15.1996 32.6121 15.2839 32.8156 15.4339 32.9657C15.584 33.1157 15.7874 33.2 15.9996 33.2C16.2118 33.2 16.4153 33.1157 16.5653 32.9657C16.7153 32.8156 16.7996 32.6121 16.7996 32.4V29.5312L17.834 30.5656C17.9849 30.7113 18.187 30.7919 18.3967 30.7901C18.6065 30.7883 18.8071 30.7042 18.9555 30.5558C19.1038 30.4075 19.1879 30.2069 19.1897 29.9971C19.1916 29.7873 19.1109 29.5853 18.9652 29.4344Z" fill="#FEF8F1"/>
<defs>
<filter id="filter0_d_2791_169815" x="7" y="8" width="34.3965" height="41" filterUnits="userSpaceOnUse" color-interpolation-filters="sRGB">
<feFlood flood-opacity="0" result="BackgroundImageFix"/>
<feColorMatrix in="SourceAlpha" type="matrix" values="0 0 0 0 0 0 0 0 0 0 0 0 0 0 0 0 0 0 127 0" result="hardAlpha"/>
<feOffset dy="4"/>
<feGaussianBlur stdDeviation="3.5"/>
<feComposite in2="hardAlpha" operator="out"/>
<feColorMatrix type="matrix" values="0 0 0 0 0.980392 0 0 0 0 0.568627 0 0 0 0 0.105882 0 0 0 0.5 0"/>
<feBlend mode="normal" in2="BackgroundImageFix" result="effect1_dropShadow_2791_169815"/>
<feBlend mode="normal" in="SourceGraphic" in2="effect1_dropShadow_2791_169815" result="shape"/>
</filter>
</defs>
</svg>
