<svg width="52" height="54" viewBox="0 0 52 54" fill="none" xmlns="http://www.w3.org/2000/svg">
<circle cx="26" cy="24" r="22.5" fill="#70D2DE" stroke="#37C6D7" stroke-width="3"/>
<g filter="url(#filter0_d_2791_169817)">
<path fill-rule="evenodd" clip-rule="evenodd" d="M17.6313 15.0625C17.225 12.95 18.85 11 20.9625 11C22.8313 11 24.375 12.5437 24.375 14.4125V18.6375C24.8625 18.6375 25.35 18.5562 25.8375 18.5562C26.325 18.5562 26.7313 18.5562 27.2188 18.6375V14.4125C27.2188 12.5437 28.7625 11 30.6313 11C32.7438 11 34.3688 12.95 34.0438 15.0625L33.15 20.0188C36.3188 21.4 38.7563 23.8375 38.7563 26.8438V28.7125C38.7563 31.2312 37.1313 33.3438 34.775 34.725C32.4188 36.1875 29.3313 37 25.8375 37C22.3438 37 19.2563 36.1875 16.9 34.725C14.625 33.3438 13 31.2312 13 28.7125V26.8438C13 23.8375 15.3563 21.4 18.525 20.0188L17.6313 15.0625ZM31.9313 20.6687L32.9875 14.8187C33.2313 13.3562 32.175 11.975 30.6313 11.975C29.3313 11.975 28.275 13.0312 28.275 14.3312V19.6937C27.95 19.6125 27.5438 19.6125 27.2188 19.6125C26.7313 19.6125 26.325 19.5312 25.8375 19.5312C25.35 19.5312 24.8625 19.5312 24.375 19.6125C24.05 19.6125 23.6438 19.6937 23.3188 19.6937V14.4125C23.3188 13.1125 22.2625 12.0562 20.9625 12.0562C19.5 12.0562 18.3625 13.4375 18.6875 14.9L19.7438 20.75C16.3313 22.05 14.0563 24.325 14.0563 26.925V28.7937C14.0563 32.775 19.3375 36.025 25.8375 36.025C32.3375 36.025 37.6188 32.775 37.6188 28.7937V26.925C37.7 24.2437 35.425 21.9688 31.9313 20.6687Z" fill="#EBFCFE"/>
<path d="M22.5883 26.3562C22.5883 27.4125 22.0195 28.3062 21.2883 28.3062C20.557 28.3062 19.9883 27.4125 19.9883 26.3562C19.9883 25.3 20.557 24.4062 21.2883 24.4062C22.0195 24.4062 22.5883 25.3 22.5883 26.3562Z" fill="#EBFCFE"/>
<path d="M31.6059 26.3562C31.6059 27.4125 31.0371 28.3062 30.3059 28.3062C29.5746 28.3062 29.0059 27.4125 29.0059 26.3562C29.0059 25.3 29.5746 24.4062 30.3059 24.4062C31.0371 24.4062 31.6059 25.3 31.6059 26.3562Z" fill="#EBFCFE"/>
<path fill-rule="evenodd" clip-rule="evenodd" d="M20.9625 11.5C19.1651 11.5 17.7751 13.1629 18.1223 14.9681L18.1233 14.9738L19.0872 20.3191L18.7248 20.4771C15.6385 21.8224 13.5 24.1263 13.5 26.8438V28.7125C13.5 30.9968 14.9744 32.9709 17.1595 34.2976L17.1637 34.3002C18.427 35.0843 19.9179 35.6787 21.5838 36.0507C19.9492 35.6726 18.4743 35.0819 17.2477 34.3284C15.0331 32.968 13.5563 31.0239 13.5563 28.7937V26.925C13.5563 24.1175 15.9009 21.7885 19.179 20.4361L18.1972 14.9982C17.8095 13.2238 19.1871 11.5562 20.9625 11.5562C22.5386 11.5562 23.8188 12.8364 23.8188 14.4125V19.1532C23.8653 19.148 23.9142 19.1426 23.9644 19.1375H23.875V14.4125C23.875 12.8199 22.5551 11.5 20.9625 11.5ZM26.4655 19.0642C26.6318 19.0708 26.7933 19.0828 26.9622 19.1048C26.8355 19.0976 26.7088 19.0862 26.5734 19.0739L26.5655 19.0732C26.5327 19.0702 26.4994 19.0672 26.4655 19.0642ZM27.7188 19.1205C27.7374 19.1214 27.7562 19.1224 27.775 19.1234V14.3312C27.775 13.6982 27.9815 13.1129 28.3308 12.6391C27.948 13.1323 27.7188 13.7487 27.7188 14.4125V19.1205ZM33.1642 12.9793C33.4701 13.5457 33.5944 14.2187 33.4807 14.9009L33.4796 14.9076L32.4966 20.3516C35.847 21.7023 38.2022 24.0365 38.1188 26.9324V28.7937C38.1188 31.0239 36.6419 32.968 34.4273 34.3284C33.2007 35.0819 31.7259 35.6725 30.0912 36.0507C31.7571 35.6787 33.248 35.0843 34.5113 34.3002L34.5221 34.2935C36.7847 32.9671 38.2563 30.9943 38.2563 28.7125V26.8438C38.2563 24.1327 36.0453 21.8262 32.9502 20.4771L32.5878 20.3191L33.5505 14.9804C33.6603 14.2568 33.5045 13.5583 33.1642 12.9793ZM17.1397 15.154C16.6764 12.7353 18.5359 10.5 20.9625 10.5C23.1074 10.5 24.875 12.2676 24.875 14.4125V18.114C24.9368 18.1092 24.9999 18.104 25.0647 18.0986L25.0738 18.0978C25.3116 18.078 25.5729 18.0563 25.8375 18.0563H25.8518C26.1453 18.0562 26.4248 18.0562 26.7188 18.0765V14.4125C26.7188 12.2676 28.4864 10.5 30.6313 10.5C33.0621 10.5 34.9077 12.735 34.5379 15.1385L34.536 15.1513L33.7112 19.7239C36.7878 21.167 39.2563 23.6658 39.2563 26.8438V28.7125C39.2563 31.4662 37.4804 33.7169 35.0333 35.1531C32.5838 36.6719 29.4027 37.5 25.8375 37.5C22.2707 37.5 19.0883 36.6711 16.6384 35.1511C14.2745 33.7152 12.5 31.4649 12.5 28.7125V26.8438C12.5 23.6717 14.8853 21.1707 17.9638 19.724L17.1397 15.154ZM30.6313 12.475C29.6074 12.475 28.775 13.3074 28.775 14.3312V20.3341L28.1537 20.1788C27.9001 20.1154 27.5601 20.1125 27.2188 20.1125C26.9522 20.1125 26.7097 20.0905 26.4907 20.0705L26.4829 20.0698C26.2571 20.0493 26.0553 20.0312 25.8375 20.0312C25.3434 20.0312 24.8972 20.0324 24.4572 20.1057L24.4164 20.1125H24.375C24.2456 20.1125 24.092 20.129 23.9021 20.1501L23.8883 20.1516C23.7154 20.1708 23.5093 20.1937 23.3188 20.1937H22.8188V14.4125C22.8188 13.3886 21.9864 12.5563 20.9625 12.5563C19.8163 12.5563 18.9208 13.6448 19.1756 14.7915L19.1778 14.8013L20.3095 21.0695L19.9217 21.2172C16.5756 22.492 14.5563 24.6417 14.5563 26.925V28.7937C14.5563 30.5449 15.72 32.2164 17.7711 33.4763C19.8134 34.7309 22.665 35.525 25.8375 35.525C29.01 35.525 31.8616 34.7309 33.9039 33.4763C35.955 32.2164 37.1188 30.5449 37.1188 28.7937V26.9174L37.119 26.9099C37.1902 24.5583 35.1847 22.4128 31.7569 21.1374L31.3649 20.9915L32.4948 14.7333C32.6897 13.5528 31.841 12.475 30.6313 12.475ZM20.7819 25.2597C20.6089 25.523 20.4883 25.9121 20.4883 26.3562C20.4883 26.8004 20.6089 27.1895 20.7819 27.4528C20.957 27.7191 21.1446 27.8062 21.2883 27.8062C21.432 27.8062 21.6196 27.7191 21.7946 27.4528C21.9677 27.1895 22.0883 26.8004 22.0883 26.3562C22.0883 25.9121 21.9677 25.523 21.7946 25.2597C21.6196 24.9934 21.432 24.9062 21.2883 24.9062C21.1446 24.9062 20.957 24.9934 20.7819 25.2597ZM19.9462 24.7106C20.2383 24.266 20.7007 23.9062 21.2883 23.9062C21.8759 23.9062 22.3382 24.266 22.6304 24.7106C22.9245 25.1582 23.0883 25.7441 23.0883 26.3562C23.0883 26.9684 22.9245 27.5543 22.6304 28.0019C22.3382 28.4465 21.8759 28.8062 21.2883 28.8062C20.7007 28.8062 20.2383 28.4465 19.9462 28.0019C19.652 27.5543 19.4883 26.9684 19.4883 26.3562C19.4883 25.7441 19.652 25.1582 19.9462 24.7106ZM29.7995 25.2597C29.6265 25.523 29.5059 25.9121 29.5059 26.3562C29.5059 26.8004 29.6265 27.1895 29.7995 27.4528C29.9745 27.7191 30.1622 27.8062 30.3059 27.8062C30.4495 27.8062 30.6372 27.7191 30.8122 27.4528C30.9852 27.1895 31.1059 26.8004 31.1059 26.3562C31.1059 25.9121 30.9852 25.523 30.8122 25.2597C30.6372 24.9934 30.4495 24.9062 30.3059 24.9062C30.1622 24.9062 29.9745 24.9934 29.7995 25.2597ZM28.9638 24.7106C29.2559 24.266 29.7183 23.9062 30.3059 23.9062C30.8934 23.9062 31.3558 24.266 31.6479 24.7106C31.9421 25.1582 32.1059 25.7441 32.1059 26.3562C32.1059 26.9684 31.9421 27.5543 31.6479 28.0019C31.3558 28.4465 30.8934 28.8062 30.3059 28.8062C29.7183 28.8062 29.2559 28.4465 28.9638 28.0019C28.6696 27.5543 28.5059 26.9684 28.5059 26.3562C28.5059 25.7441 28.6696 25.1582 28.9638 24.7106Z" fill="#EBFCFE"/>
</g>
<path d="M17.9996 37.4C19.9622 37.4 21.8444 36.6203 23.2322 35.2326C24.62 33.8448 25.3996 31.9626 25.3996 30C25.3996 28.0374 24.62 26.1552 23.2322 24.7674C21.8444 23.3796 19.9622 22.6 17.9996 22.6C16.037 22.6 14.1548 23.3796 12.767 24.7674C11.3793 26.1552 10.5996 28.0374 10.5996 30C10.5996 31.9626 11.3793 33.8448 12.767 35.2326C14.1548 36.6203 16.037 37.4 17.9996 37.4Z" fill="#6FD1DD" stroke="#6FD2DE" stroke-width="2"/>
<path fill-rule="evenodd" clip-rule="evenodd" d="M17.9996 36.4C19.697 36.4 21.3249 35.7257 22.5251 34.5255C23.7253 33.3252 24.3996 31.6974 24.3996 30C24.3996 28.3026 23.7253 26.6747 22.5251 25.4745C21.3249 24.2743 19.697 23.6 17.9996 23.6C16.3022 23.6 14.6744 24.2743 13.4741 25.4745C12.2739 26.6747 11.5996 28.3026 11.5996 30C11.5996 31.6974 12.2739 33.3252 13.4741 34.5255C14.6744 35.7257 16.3022 36.4 17.9996 36.4ZM20.9652 29.4344L18.5652 27.0344C18.4152 26.8844 18.2117 26.8001 17.9996 26.8001C17.7875 26.8001 17.584 26.8844 17.434 27.0344L15.034 29.4344C14.8883 29.5853 14.8076 29.7873 14.8095 29.9971C14.8113 30.2069 14.8954 30.4075 15.0438 30.5558C15.1921 30.7042 15.3927 30.7883 15.6025 30.7901C15.8122 30.7919 16.0143 30.7113 16.1652 30.5656L17.1996 29.5312V32.4C17.1996 32.6121 17.2839 32.8156 17.4339 32.9657C17.584 33.1157 17.7874 33.2 17.9996 33.2C18.2118 33.2 18.4153 33.1157 18.5653 32.9657C18.7153 32.8156 18.7996 32.6121 18.7996 32.4V29.5312L19.834 30.5656C19.9849 30.7113 20.187 30.7919 20.3967 30.7901C20.6065 30.7883 20.8071 30.7042 20.9555 30.5558C21.1038 30.4075 21.1879 30.2069 21.1897 29.9971C21.1916 29.7873 21.1109 29.5853 20.9652 29.4344Z" fill="#EBFCFE"/>
<defs>
<filter id="filter0_d_2791_169817" x="0.5" y="2.5" width="50.7559" height="51" filterUnits="userSpaceOnUse" color-interpolation-filters="sRGB">
<feFlood flood-opacity="0" result="BackgroundImageFix"/>
<feColorMatrix in="SourceAlpha" type="matrix" values="0 0 0 0 0 0 0 0 0 0 0 0 0 0 0 0 0 0 127 0" result="hardAlpha"/>
<feOffset dy="4"/>
<feGaussianBlur stdDeviation="6"/>
<feComposite in2="hardAlpha" operator="out"/>
<feColorMatrix type="matrix" values="0 0 0 0 0.0582291 0 0 0 0 0.586714 0 0 0 0 0.658437 0 0 0 1 0"/>
<feBlend mode="normal" in2="BackgroundImageFix" result="effect1_dropShadow_2791_169817"/>
<feBlend mode="normal" in="SourceGraphic" in2="effect1_dropShadow_2791_169817" result="shape"/>
</filter>
</defs>
</svg>
