<svg width="48" height="52" viewBox="0 0 48 52" fill="none" xmlns="http://www.w3.org/2000/svg">
<circle cx="24" cy="24" r="22.5" fill="#7C66DC" stroke="#6E54DE" stroke-width="3"/>
<g filter="url(#filter0_d_2791_169808)">
<path d="M24.3501 12L24.1895 12.5469V28.4158L24.3501 28.5764L31.6971 24.2223L24.3501 12Z" fill="#F5EBFD"/>
<path d="M24.3472 12L17 24.2223L24.3472 28.5764V20.8741V12Z" fill="#F5EBFD"/>
<path d="M24.3503 29.9717L24.2598 30.0824V35.7351L24.3503 36L31.7018 25.6199L24.3503 29.9717Z" fill="#F5EBFD"/>
<path d="M24.3472 36V29.9717L17 25.6199L24.3472 36Z" fill="#F5EBFD"/>
<path d="M24.3516 28.5762L31.6986 24.2221L24.3516 20.8739V28.5762Z" fill="#F5EBFD"/>
<path d="M17 24.2221L24.3472 28.5762V20.8739L17 24.2221Z" fill="#F5EBFD"/>
</g>
<path d="M31.9996 22.6C33.9622 22.6 35.8444 23.3797 37.2322 24.7674C38.62 26.1552 39.3996 28.0374 39.3996 30C39.3996 31.9626 38.62 33.8448 37.2322 35.2326C35.8444 36.6204 33.9622 37.4 31.9996 37.4C30.037 37.4 28.1548 36.6204 26.767 35.2326C25.3793 33.8448 24.5996 31.9626 24.5996 30C24.5996 28.0374 25.3793 26.1552 26.767 24.7674C28.1548 23.3797 30.037 22.6 31.9996 22.6Z" fill="#7B64DB" stroke="#7A64DB" stroke-width="2"/>
<path fill-rule="evenodd" clip-rule="evenodd" d="M31.9996 23.6C33.697 23.6 35.3249 24.2743 36.5251 25.4745C37.7253 26.6748 38.3996 28.3026 38.3996 30C38.3996 31.6974 37.7253 33.3253 36.5251 34.5255C35.3249 35.7257 33.697 36.4 31.9996 36.4C30.3022 36.4 28.6744 35.7257 27.4741 34.5255C26.2739 33.3253 25.5996 31.6974 25.5996 30C25.5996 28.3026 26.2739 26.6748 27.4741 25.4745C28.6744 24.2743 30.3022 23.6 31.9996 23.6ZM34.9652 30.5656L32.5652 32.9656C32.4152 33.1156 32.2117 33.1999 31.9996 33.1999C31.7875 33.1999 31.584 33.1156 31.434 32.9656L29.034 30.5656C28.8883 30.4147 28.8076 30.2127 28.8095 30.0029C28.8113 29.7931 28.8954 29.5925 29.0438 29.4442C29.1921 29.2958 29.3927 29.2117 29.6025 29.2099C29.8122 29.2081 30.0143 29.2887 30.1652 29.4344L31.1996 30.4688V27.6C31.1996 27.3879 31.2839 27.1844 31.4339 27.0343C31.584 26.8843 31.7874 26.8 31.9996 26.8C32.2118 26.8 32.4153 26.8843 32.5653 27.0343C32.7153 27.1844 32.7996 27.3879 32.7996 27.6V30.4688L33.834 29.4344C33.9849 29.2887 34.187 29.2081 34.3967 29.2099C34.6065 29.2117 34.8071 29.2958 34.9555 29.4442C35.1038 29.5925 35.1879 29.7931 35.1897 30.0029C35.1916 30.2127 35.1109 30.4147 34.9652 30.5656Z" fill="#F5EBFD"/>
<defs>
<filter id="filter0_d_2791_169808" x="5" y="4" width="38.7012" height="48" filterUnits="userSpaceOnUse" color-interpolation-filters="sRGB">
<feFlood flood-opacity="0" result="BackgroundImageFix"/>
<feColorMatrix in="SourceAlpha" type="matrix" values="0 0 0 0 0 0 0 0 0 0 0 0 0 0 0 0 0 0 127 0" result="hardAlpha"/>
<feOffset dy="4"/>
<feGaussianBlur stdDeviation="6"/>
<feComposite in2="hardAlpha" operator="out"/>
<feColorMatrix type="matrix" values="0 0 0 0 0.164533 0 0 0 0 0.0468229 0 0 0 0 0.678177 0 0 0 1 0"/>
<feBlend mode="normal" in2="BackgroundImageFix" result="effect1_dropShadow_2791_169808"/>
<feBlend mode="normal" in="SourceGraphic" in2="effect1_dropShadow_2791_169808" result="shape"/>
</filter>
</defs>
</svg>
