<svg width="48" height="48" viewBox="0 0 48 48" fill="none" xmlns="http://www.w3.org/2000/svg">
<circle cx="24" cy="24" r="22.5" fill="#E3DEF7" stroke="#CEC6F1" stroke-width="3"/>
<g filter="url(#filter0_d_2791_169819)">
<path d="M24.3501 12L24.1895 12.5469V28.4158L24.3501 28.5764L31.6971 24.2223L24.3501 12Z" fill="#6544F9"/>
<path d="M24.3472 12L17 24.2223L24.3472 28.5764V20.8741V12Z" fill="#6544F9"/>
<path d="M24.3503 29.9717L24.2598 30.0824V35.7351L24.3503 36L31.7018 25.6199L24.3503 29.9717Z" fill="#6544F9"/>
<path d="M24.3472 36V29.9717L17 25.6199L24.3472 36Z" fill="#6544F9"/>
<path d="M24.3516 28.5762L31.6986 24.2221L24.3516 20.8739V28.5762Z" fill="#6544F9"/>
<path d="M17 24.2221L24.3472 28.5762V20.8739L17 24.2221Z" fill="#6544F9"/>
</g>
<path d="M15.9996 37.4C17.9622 37.4 19.8444 36.6203 21.2322 35.2326C22.62 33.8448 23.3996 31.9626 23.3996 30C23.3996 28.0374 22.62 26.1552 21.2322 24.7674C19.8444 23.3796 17.9622 22.6 15.9996 22.6C14.037 22.6 12.1548 23.3796 10.767 24.7674C9.37925 26.1552 8.59961 28.0374 8.59961 30C8.59961 31.9626 9.37925 33.8448 10.767 35.2326C12.1548 36.6203 14.037 37.4 15.9996 37.4Z" fill="#6544F9" stroke="#6544F9" stroke-width="2"/>
<path fill-rule="evenodd" clip-rule="evenodd" d="M15.9996 36.4C17.697 36.4 19.3249 35.7257 20.5251 34.5255C21.7253 33.3252 22.3996 31.6974 22.3996 30C22.3996 28.3026 21.7253 26.6747 20.5251 25.4745C19.3249 24.2743 17.697 23.6 15.9996 23.6C14.3022 23.6 12.6744 24.2743 11.4741 25.4745C10.2739 26.6747 9.59961 28.3026 9.59961 30C9.59961 31.6974 10.2739 33.3252 11.4741 34.5255C12.6744 35.7257 14.3022 36.4 15.9996 36.4ZM18.9652 29.4344L16.5652 27.0344C16.4152 26.8844 16.2117 26.8001 15.9996 26.8001C15.7875 26.8001 15.584 26.8844 15.434 27.0344L13.034 29.4344C12.8883 29.5853 12.8076 29.7873 12.8095 29.9971C12.8113 30.2069 12.8954 30.4075 13.0438 30.5558C13.1921 30.7042 13.3927 30.7883 13.6025 30.7901C13.8122 30.7919 14.0143 30.7113 14.1652 30.5656L15.1996 29.5312V32.4C15.1996 32.6121 15.2839 32.8156 15.4339 32.9657C15.584 33.1157 15.7874 33.2 15.9996 33.2C16.2118 33.2 16.4153 33.1157 16.5653 32.9657C16.7153 32.8156 16.7996 32.6121 16.7996 32.4V29.5312L17.834 30.5656C17.9849 30.7113 18.187 30.7919 18.3967 30.7901C18.6065 30.7883 18.8071 30.7042 18.9555 30.5558C19.1038 30.4075 19.1879 30.2069 19.1897 29.9971C19.1916 29.7873 19.1109 29.5853 18.9652 29.4344Z" fill="#F5EBFD"/>
<defs>
<filter id="filter0_d_2791_169819" x="10" y="9" width="28.7012" height="38" filterUnits="userSpaceOnUse" color-interpolation-filters="sRGB">
<feFlood flood-opacity="0" result="BackgroundImageFix"/>
<feColorMatrix in="SourceAlpha" type="matrix" values="0 0 0 0 0 0 0 0 0 0 0 0 0 0 0 0 0 0 127 0" result="hardAlpha"/>
<feOffset dy="4"/>
<feGaussianBlur stdDeviation="3.5"/>
<feComposite in2="hardAlpha" operator="out"/>
<feColorMatrix type="matrix" values="0 0 0 0 0.396078 0 0 0 0 0.266667 0 0 0 0 0.976471 0 0 0 0.5 0"/>
<feBlend mode="normal" in2="BackgroundImageFix" result="effect1_dropShadow_2791_169819"/>
<feBlend mode="normal" in="SourceGraphic" in2="effect1_dropShadow_2791_169819" result="shape"/>
</filter>
</defs>
</svg>
