<svg width="48" height="54" viewBox="0 0 48 54" fill="none" xmlns="http://www.w3.org/2000/svg">
<circle cx="24" cy="24" r="22.5" fill="#F4C61E" stroke="#DDB00A" stroke-width="3"/>
<g filter="url(#filter0_d_2853_272796)">
<path d="M26.6487 33.2512V36.3911L23.911 38L21.2512 36.3911V33.2512L23.911 34.8601L26.6487 33.2512ZM12 22.3911L14.6599 24V29.3846L19.24 32.1223V35.2623L12 30.9935V22.3911ZM35.822 22.3911V31.0065L28.5042 35.2753V32.1353L33.0843 29.3976V24L35.822 22.3911ZM28.4912 18.1223L31.2289 19.7312V22.8712L26.6487 25.6089V31.0843L23.9889 32.6932L21.329 31.0843V25.6089L16.5802 22.8712V19.7312L19.3179 18.1223L23.898 20.8601L28.4912 18.1223ZM16.5931 25.1288L19.253 26.7377V29.8777L16.5931 28.2688V25.1288ZM31.2289 25.1288V28.2688L28.569 29.8777V26.7377L31.2289 25.1288ZM14.6599 15.3846L17.3976 16.9935L14.6599 18.6024V21.7424L12 20.1335V16.9935L14.6599 15.3846ZM33.1622 15.3846L35.8999 16.9935V20.1335L33.1622 21.7424V18.6024L30.5023 16.9935L33.1622 15.3846ZM23.911 15.3846L26.6487 16.9935L23.911 18.6154L21.2512 17.0065L23.911 15.3846ZM23.911 10L31.2289 14.2688L28.569 15.8777L23.9889 13.1399L19.3179 15.8777L16.671 14.2688L23.911 10Z" fill="#FEFBEF"/>
</g>
<defs>
<filter id="filter0_d_2853_272796" x="0" y="2" width="47.9004" height="52" filterUnits="userSpaceOnUse" color-interpolation-filters="sRGB">
<feFlood flood-opacity="0" result="BackgroundImageFix"/>
<feColorMatrix in="SourceAlpha" type="matrix" values="0 0 0 0 0 0 0 0 0 0 0 0 0 0 0 0 0 0 127 0" result="hardAlpha"/>
<feOffset dy="4"/>
<feGaussianBlur stdDeviation="6"/>
<feComposite in2="hardAlpha" operator="out"/>
<feColorMatrix type="matrix" values="0 0 0 0 0.731667 0 0 0 0 0.587736 0 0 0 0 0.0683333 0 0 0 1 0"/>
<feBlend mode="normal" in2="BackgroundImageFix" result="effect1_dropShadow_2853_272796"/>
<feBlend mode="normal" in="SourceGraphic" in2="effect1_dropShadow_2853_272796" result="shape"/>
</filter>
</defs>
</svg>
