<svg width="50" height="51" viewBox="0 0 50 51" fill="none" xmlns="http://www.w3.org/2000/svg">
<circle cx="25" cy="24" r="22.5" fill="#FE7198" stroke="#FC5683" stroke-width="3"/>
<g filter="url(#filter0_d_2791_169805)">
<path d="M29.0283 13.5657C26.4948 13.7276 23.5892 14.7105 20.6244 16.4222C17.6597 18.134 15.3556 20.1588 13.9487 22.272C12.5417 24.3851 12.2469 26.4119 13.0781 27.8516L15.7031 32.3983C16.5344 33.838 18.456 34.5851 20.9705 34.4342C23.4851 34.2833 26.4097 33.2894 29.3744 31.5777C32.3392 29.866 34.6433 27.8411 36.0502 25.728C37.4571 23.6148 37.752 21.588 36.9207 20.1483L34.2957 15.6016C33.4645 14.1619 31.5429 13.4148 29.0283 13.5657ZM25.9862 27.4591L27.7362 30.4902C25.8982 31.4629 24.2295 32.0727 22.7794 32.4048L21.0622 29.4305C22.6355 29.0274 24.2958 28.3593 25.9862 27.4591ZM27.5017 26.5841C29.1266 25.5702 30.5353 24.4664 31.671 23.3055L33.3882 26.2798C32.3756 27.3696 31.0132 28.5098 29.2517 29.6152L27.5017 26.5841ZM17.2187 31.5233L16.207 29.7709C16.9129 29.8926 17.6306 29.9317 18.3455 29.8876L19.2514 29.794L20.9139 32.6735C18.9907 32.7988 17.6726 32.3095 17.2187 31.5233ZM34.5538 24.7985L32.8913 21.919L33.4252 21.1813C33.8209 20.5842 34.1459 19.9431 34.3935 19.2709L35.4052 21.0233C35.8591 21.8095 35.6238 23.1956 34.5538 24.7985Z" fill="#FFEBF0"/>
</g>
<defs>
<filter id="filter0_d_2791_169805" x="0.617188" y="5.54651" width="48.7637" height="44.9069" filterUnits="userSpaceOnUse" color-interpolation-filters="sRGB">
<feFlood flood-opacity="0" result="BackgroundImageFix"/>
<feColorMatrix in="SourceAlpha" type="matrix" values="0 0 0 0 0 0 0 0 0 0 0 0 0 0 0 0 0 0 127 0" result="hardAlpha"/>
<feOffset dy="4"/>
<feGaussianBlur stdDeviation="6"/>
<feComposite in2="hardAlpha" operator="out"/>
<feColorMatrix type="matrix" values="0 0 0 0 0.994126 0 0 0 0 0.165874 0 0 0 0 0.394965 0 0 0 1 0"/>
<feBlend mode="normal" in2="BackgroundImageFix" result="effect1_dropShadow_2791_169805"/>
<feBlend mode="normal" in="SourceGraphic" in2="effect1_dropShadow_2791_169805" result="shape"/>
</filter>
</defs>
</svg>
