<svg width="48" height="48" viewBox="0 0 48 48" fill="none" xmlns="http://www.w3.org/2000/svg">
<circle cx="24" cy="24" r="22.5" fill="#FFD6E2" stroke="#FEB9CC" stroke-width="3"/>
<g filter="url(#filter0_d_2791_169802)">
<path d="M28.0283 13.5657C25.4948 13.7276 22.5892 14.7105 19.6244 16.4222C16.6597 18.134 14.3556 20.1588 12.9487 22.272C11.5417 24.3851 11.2469 26.4119 12.0781 27.8516L14.7031 32.3983C15.5344 33.838 17.456 34.5851 19.9705 34.4342C22.4851 34.2833 25.4097 33.2894 28.3744 31.5777C31.3392 29.866 33.6433 27.8411 35.0502 25.728C36.4571 23.6148 36.752 21.588 35.9207 20.1483L33.2957 15.6016C32.4645 14.1619 30.5429 13.4148 28.0283 13.5657ZM24.9862 27.4591L26.7362 30.4902C24.8982 31.4629 23.2295 32.0727 21.7794 32.4048L20.0622 29.4305C21.6355 29.0274 23.2958 28.3593 24.9862 27.4591ZM26.5017 26.5841C28.1266 25.5702 29.5353 24.4664 30.671 23.3055L32.3882 26.2798C31.3756 27.3696 30.0132 28.5098 28.2517 29.6152L26.5017 26.5841ZM16.2187 31.5233L15.207 29.7709C15.9129 29.8926 16.6306 29.9317 17.3455 29.8876L18.2514 29.794L19.9139 32.6735C17.9907 32.7988 16.6726 32.3095 16.2187 31.5233ZM33.5538 24.7985L31.8913 21.919L32.4252 21.1813C32.8209 20.5842 33.1459 19.9431 33.3935 19.2709L34.4052 21.0233C34.8591 21.8095 34.6238 23.1956 33.5538 24.7985Z" fill="#FE477A"/>
</g>
<defs>
<filter id="filter0_d_2791_169802" x="4.61719" y="10.5465" width="38.7637" height="34.9069" filterUnits="userSpaceOnUse" color-interpolation-filters="sRGB">
<feFlood flood-opacity="0" result="BackgroundImageFix"/>
<feColorMatrix in="SourceAlpha" type="matrix" values="0 0 0 0 0 0 0 0 0 0 0 0 0 0 0 0 0 0 127 0" result="hardAlpha"/>
<feOffset dy="4"/>
<feGaussianBlur stdDeviation="3.5"/>
<feComposite in2="hardAlpha" operator="out"/>
<feColorMatrix type="matrix" values="0 0 0 0 0.996078 0 0 0 0 0.443137 0 0 0 0 0.596078 0 0 0 0.5 0"/>
<feBlend mode="normal" in2="BackgroundImageFix" result="effect1_dropShadow_2791_169802"/>
<feBlend mode="normal" in="SourceGraphic" in2="effect1_dropShadow_2791_169802" result="shape"/>
</filter>
</defs>
</svg>
