<svg width="19" height="20" viewBox="0 0 19 20" fill="none" xmlns="http://www.w3.org/2000/svg">
<path d="M11.3226 9.23553L12.7093 6.88259L16.4469 12.704L16.4486 13.8213L16.4365 6.1335C16.4276 5.94558 16.3278 5.77368 16.1686 5.67229L9.43955 1.80161C9.28223 1.72422 9.08252 1.72511 8.9254 1.80406C8.90417 1.81464 8.88418 1.82623 8.8652 1.83887L8.84171 1.85361L2.31012 5.63861L2.2848 5.65012C2.25221 5.66509 2.21923 5.68415 2.18835 5.70628C2.06448 5.79507 1.98226 5.9264 1.95566 6.07373C1.95165 6.09605 1.9487 6.11876 1.94734 6.14175L1.9576 12.4065L5.43898 7.01051C5.87732 6.29502 6.83226 6.06455 7.71879 6.07707L8.75926 6.10453L2.6286 15.9364L3.35128 16.3524L9.55533 6.11452L12.2976 6.10457L6.1095 16.6008L8.68824 18.084L8.99634 18.2612C9.12667 18.3142 9.28033 18.3169 9.41174 18.2694L16.2354 14.315L14.9308 15.071L11.3226 9.23553ZM11.8516 16.8554L9.24711 12.7676L10.837 10.0696L14.2576 15.4611L11.8516 16.8554Z" fill="#2D374B"/>
<path d="M9.24716 12.7675L11.8516 16.8554L14.2577 15.461L10.837 10.0696L9.24716 12.7675Z" fill="#28A0F0"/>
<path d="M16.4487 13.8212L16.4469 12.704L12.7093 6.88255L11.3226 9.23549L14.9308 15.0709L16.2353 14.3149C16.3633 14.211 16.4407 14.0585 16.4489 13.8939L16.4487 13.8212Z" fill="#28A0F0"/>
<path d="M0.786347 14.8748L2.6286 15.9364L8.75923 6.10457L7.71876 6.07712C6.83223 6.06459 5.87725 6.29506 5.43894 7.01055L1.95757 12.4066L0.786347 14.2061V14.8748V14.8748Z" fill="white"/>
<path d="M12.2976 6.10457L9.55533 6.11453L3.35128 16.3524L5.51979 17.6009L6.10951 16.6008L12.2976 6.10457Z" fill="white"/>
<path d="M17.6043 6.09045C17.5813 5.51696 17.2708 4.99196 16.7844 4.68631L9.96712 0.765852C9.48599 0.523597 8.88496 0.523286 8.40298 0.765696C8.34601 0.794437 1.77334 4.60631 1.77334 4.60631C1.68237 4.64995 1.59475 4.70191 1.51234 4.7609C1.07815 5.07208 0.813493 5.55565 0.786308 6.08691V14.2061L1.95753 12.4065L1.9473 6.14179C1.94866 6.11888 1.95154 6.09632 1.95562 6.07408C1.98211 5.92668 2.0644 5.79519 2.18831 5.70632C2.21923 5.68419 8.90418 1.81468 8.92541 1.80406C9.08253 1.72515 9.28224 1.72422 9.43956 1.80161L16.1686 5.67221C16.3278 5.7736 16.4276 5.9455 16.4365 6.13342V13.8939C16.4284 14.0585 16.3633 14.211 16.2353 14.3149L14.9308 15.0709L14.2576 15.461L11.8516 16.8553L9.41171 18.2693C9.2803 18.3168 9.12664 18.3141 8.99631 18.2612L6.10947 16.6008L5.51976 17.6009L8.11406 19.0946C8.19985 19.1434 8.27627 19.1867 8.33901 19.2219C8.43612 19.2763 8.50231 19.3127 8.52568 19.3241C8.71007 19.4137 8.97539 19.4658 9.21445 19.4658C9.43365 19.4658 9.64739 19.4255 9.84963 19.3463L16.9366 15.242C17.3434 14.9269 17.5827 14.4516 17.6043 13.9367V6.09045Z" fill="#96BEDC"/>
</svg>
