<svg width="16" height="19" viewBox="0 0 16 19" fill="none" xmlns="http://www.w3.org/2000/svg">
<path d="M9.41705 15.4472V17.4657L7.65709 18.5L5.94717 17.4657V15.4472L7.65709 16.4815L9.41705 15.4472ZM0 8.46571L1.70992 9.5V12.9615L4.65431 14.7215V16.74L0 13.9958V8.46571ZM15.3142 8.46571V14.0042L10.6098 16.7484V14.7298L13.5542 12.9699V9.5L15.3142 8.46571ZM10.6015 5.7215L12.3614 6.75579V8.77433L9.41705 10.5343V14.0542L7.70713 15.0885L5.99722 14.0542V10.5343L2.94439 8.77433V6.75579L4.70435 5.7215L7.64874 7.48146L10.6015 5.7215ZM2.95273 10.2257L4.66265 11.26V13.2785L2.95273 12.2442V10.2257ZM12.3614 10.2257V12.2442L10.6515 13.2785V11.26L12.3614 10.2257ZM1.70992 3.96154L3.46988 4.99583L1.70992 6.03012V8.04866L0 7.01437V4.99583L1.70992 3.96154ZM13.6043 3.96154L15.3642 4.99583V7.01437L13.6043 8.04866V6.03012L11.8943 4.99583L13.6043 3.96154ZM7.65709 3.96154L9.41705 4.99583L7.65709 6.03846L5.94717 5.00417L7.65709 3.96154ZM7.65709 0.5L12.3614 3.24421L10.6515 4.2785L7.70713 2.51853L4.70435 4.2785L3.00278 3.24421L7.65709 0.5Z" fill="#F3BA2C"/>
</svg>
